<svg xmlns="http://www.w3.org/2000/svg" viewBox="0 0 399.28 332.54"><defs><style>.cls-1{isolation:isolate;}.cls-2{fill:#f7f9fc;}.cls-14,.cls-20,.cls-3{opacity:0.2;}.cls-4{fill:#995900;}.cls-5{fill:#e09941;}.cls-6{fill:#f7ac2d;}.cls-7{fill:#fff;}.cls-8{fill:#092242;}.cls-9{fill:#256b62;}.cls-10,.cls-21,.cls-22,.cls-23{fill:none;stroke-miterlimit:10;}.cls-10{stroke:#cfbf8b;stroke-width:0.73px;}.cls-11{fill:#f6ae39;}.cls-12{fill:#f04148;}.cls-13{fill:#c0584f;}.cls-14{mix-blend-mode:multiply;}.cls-15{fill:#4c5777;}.cls-16{fill:#02123b;}.cls-17{fill:#f4f2ea;}.cls-18{fill:#006bff;}.cls-19{fill:#3a82e2;}.cls-21{stroke:#000;}.cls-21,.cls-22{stroke-linecap:round;}.cls-21,.cls-22,.cls-23{stroke-width:0.75px;}.cls-22{stroke:#02123b;}.cls-23{stroke:#f4f2ea;}.cls-24,.cls-26{opacity:0.5;}.cls-25{opacity:0.75;}</style></defs><title>Illustration-ForSale</title><g class="cls-1"><g id="Layer_2" data-name="Layer 2"><g id="Layer_2-2" data-name="Layer 2"><path class="cls-2" d="M342.35,257.76c-3.82,14.85-5.78,30.58-13.76,43.65a53.38,53.38,0,0,1-22.09,20c-10.62,5.18-22.61,6.66-34.37,7.83-42.72,4.27-86.22,5.42-128.27-3.31s-82.8-28-111.75-59.7c-15.42-16.86-27.42-37.48-31-60S3,159.12,18.5,142.36c27.41-29.63,74.07-27.11,112.15-40.48,6.9-2.43,14.18-6,17.17-12.66,4.81-10.8-3.89-22.32-7.93-33.43-4.43-12.18-2.37-26.1,4.26-37.17h0A48.6,48.6,0,0,1,161.36,4.3c14.28-7,32.76-5.56,44.75,4.88C219,20.4,222.51,38.94,232.67,52.67c1.35,1.83,3,3.66,5.12,4.31a7.92,7.92,0,0,0,4.94-.34A28.27,28.27,0,0,0,247,54.57a152.61,152.61,0,0,1,85.13-18.94c14.93,1.09,30.77,5,40.62,16.27S382.81,83.47,370,91.21c-2.2,1.34-4.74,2.3-6.36,4.31-2.07,2.59-2.09,6.22-1.79,9.53,2.7,29.47,22.36,54.19,34.43,81.22,1.81,4.06,3.5,8.43,2.89,12.83-1.85,13.5-20.35,15-32.46,21.3C353.08,227.43,346.18,242.93,342.35,257.76Z"/><g class="cls-3"><polygon class="cls-4" points="226.11 156.4 286.86 156.4 312.78 127.23 252.03 127.23 226.11 156.4"/><polygon class="cls-5" points="254.74 129.98 232.99 153.48 232.99 218.48 276.49 218.48 276.49 153.48 254.74 129.98"/><rect class="cls-4" x="276.49" y="153.48" width="58" height="65"/><polygon class="cls-6" points="338.11 156.4 277.36 156.4 251.45 127.23 312.2 127.23 338.11 156.4"/><rect class="cls-7" x="243.16" y="162.9" width="3.67" height="9"/><rect class="cls-7" x="262.99" y="162.9" width="3.67" height="9"/><rect class="cls-7" x="243.16" y="179.23" width="3.67" height="9"/><rect class="cls-7" x="262.99" y="179.23" width="3.67" height="9"/><rect class="cls-7" x="284.82" y="162.9" width="3.67" height="9"/><rect class="cls-7" x="304.66" y="162.9" width="3.67" height="9"/><rect class="cls-7" x="284.82" y="179.23" width="3.67" height="9"/><rect class="cls-7" x="304.66" y="179.23" width="3.67" height="9"/><rect class="cls-7" x="324.49" y="162.9" width="3.67" height="9"/><rect class="cls-7" x="324.49" y="179.23" width="3.67" height="9"/><path class="cls-8" d="M260,218.48h-10.5V202.31a5.25,5.25,0,0,1,5.25-5.25h0a5.25,5.25,0,0,1,5.25,5.25Z"/><path class="cls-9" d="M292.74,218.48s0-15.5,10.25-15.75,11-5.83,19.75-5.67,12-32.75,20.5-29.66S354,202.48,354,202.48s9.5,2.75,12.25,16Z"/><line class="cls-10" x1="219.76" y1="218.48" x2="375.66" y2="218.48"/></g><path class="cls-11" d="M125.51,240.61a37.48,37.48,0,0,1-34-2.6c-5.73-3.58-10.69-9.32-11-16.07S86.37,208.2,93,209.48c-2.69-4.59-5.33-9.41-5.86-14.7s1.58-11.2,6.31-13.62a10.33,10.33,0,0,1,11,1.19c1.13-8.95,4.17-18.07,10.73-24.27s17.22-8.61,24.85-3.8c6.85,4.3,9.56,12.81,11.4,20.69A257.08,257.08,0,0,1,156.69,206c.67,6.24.78,13.42-3.8,17.7"/><rect class="cls-12" x="218.44" y="100.83" width="15.61" height="39.02"/><rect class="cls-13" x="215.25" y="95.3" width="21.99" height="7.48" rx="1.81"/><rect class="cls-13" x="218.44" y="109.2" width="15.61" height="1.46"/><rect class="cls-13" x="225.52" y="100.71" width="1.46" height="9.23"/><rect class="cls-13" x="225.52" y="117.05" width="1.46" height="8.66"/><rect class="cls-13" x="218.44" y="116.93" width="15.61" height="1.46"/><rect class="cls-13" x="218.44" y="124.65" width="15.61" height="1.46"/><rect class="cls-13" x="218.44" y="131.42" width="15.61" height="1.46"/><polygon class="cls-12" points="179.1 91.08 122.84 147.07 122.84 162.94 122.84 236.75 241.86 236.75 241.86 162.94 241.86 152.37 179.1 91.08"/><g class="cls-14"><path class="cls-15" d="M180.72,87.25,122.84,145v9.19l57.88-54.87,61.14,58v-5.77a1.7,1.7,0,0,0,1.15-2.94Z"/></g><rect class="cls-16" x="118.21" y="236.75" width="128.28" height="9.43"/><rect class="cls-17" x="137.88" y="177.16" width="45.85" height="38.04"/><rect class="cls-18" x="199.34" y="175.46" width="30.24" height="61.29"/><rect class="cls-19" x="201.79" y="179.36" width="25.34" height="54.22"/><rect class="cls-16" x="197.31" y="172.04" width="34.47" height="5.12" rx="1.32"/><path class="cls-16" d="M178,87.19l-62,60.34a3.86,3.86,0,0,0,2.69,6.63h0a3.84,3.84,0,0,0,2.66-1.07l56.7-53.95a3.87,3.87,0,0,1,5.33,0l56.7,54a3.84,3.84,0,0,0,2.66,1.07h0a3.86,3.86,0,0,0,2.69-6.63l-62-60.34A3.86,3.86,0,0,0,178,87.19Z"/><g class="cls-3"><rect x="129.59" y="160.09" width="10.24" height="5.37"/></g><g class="cls-3"><rect x="213.32" y="151.48" width="10.24" height="5.37"/></g><g class="cls-3"><rect x="139.83" y="154.73" width="10.24" height="5.37"/></g><rect class="cls-20" x="122.84" y="209.35" width="8.33" height="5.37"/><rect class="cls-16" x="136.56" y="175.46" width="48.49" height="1.71"/><path class="cls-7" d="M206.6,201.08a.24.24,0,0,1-.18-.07.25.25,0,0,1,0-.35l5.85-5.69a.24.24,0,0,1,.34,0,.23.23,0,0,1,0,.34L206.77,201A.23.23,0,0,1,206.6,201.08Z"/><path class="cls-7" d="M146.13,192.44A.25.25,0,0,1,146,192l5.86-5.69a.24.24,0,0,1,.34,0,.25.25,0,0,1,0,.35l-5.86,5.69A.24.24,0,0,1,146.13,192.44Z"/><path class="cls-7" d="M153.32,193.41a.25.25,0,0,1-.17-.42L159,187.3a.24.24,0,0,1,.34,0,.25.25,0,0,1,0,.35l-5.86,5.69A.21.21,0,0,1,153.32,193.41Z"/><path class="cls-7" d="M143.45,198.24a.21.21,0,0,1-.18-.09.24.24,0,0,1,0-.34l18.53-16.58a.24.24,0,0,1,.33.36l-18.54,16.58A.26.26,0,0,1,143.45,198.24Z"/><path class="cls-7" d="M216.51,203.11a.25.25,0,0,1-.17-.42l5.85-5.69a.24.24,0,1,1,.34.35L216.68,203A.28.28,0,0,1,216.51,203.11Z"/><path class="cls-7" d="M204.08,209.56a.31.31,0,0,1-.18-.07.25.25,0,0,1,0-.35l20.12-20a.25.25,0,0,1,.35,0,.25.25,0,0,1,0,.34l-20.13,20A.28.28,0,0,1,204.08,209.56Z"/><rect class="cls-16" x="149.06" y="177.16" width="1.54" height="34.87"/><rect class="cls-16" x="160.04" y="177.16" width="1.54" height="34.87"/><rect class="cls-16" x="171.01" y="177.16" width="1.54" height="34.87"/><rect class="cls-16" x="137.88" y="195.54" width="45.85" height="1.3"/><circle class="cls-17" cx="182.35" cy="131.56" r="11.71" transform="translate(22.61 289.81) rotate(-80.54)"/><path class="cls-16" d="M182.35,145a13.41,13.41,0,1,1,13.41-13.41A13.42,13.42,0,0,1,182.35,145Zm0-23.54a10.13,10.13,0,1,0,10.13,10.13A10.14,10.14,0,0,0,182.35,121.43Z"/><rect class="cls-16" x="180.84" y="120.4" width="3.03" height="22.31"/><rect class="cls-16" x="180.84" y="120.4" width="3.03" height="22.31" transform="translate(313.91 -50.79) rotate(90)"/><path class="cls-11" d="M143.34,215.4a5,5,0,0,1-3.87-4.52,2.38,2.38,0,0,1,.16-1.09,2.06,2.06,0,0,1,2-1,6,6,0,0,1,2.25.75c-1.71-2.21-3-5.21-1.85-7.76a2,2,0,0,1,1.63-1.35c.78,0,1.36.71,1.78,1.37a34.41,34.41,0,0,1,2.82,5.29c.3-1.92.9-4,2.56-5a1.06,1.06,0,0,1,1.51.15c1.44,1.39,1.31,3.69,1.07,5.68a2.57,2.57,0,0,1,3.49-1.22,4.63,4.63,0,0,1,2.27,3.33,5,5,0,0,1-.32,3.27,3,3,0,0,1-2.68,1.67"/><path class="cls-11" d="M160.48,213.81c-.38.09-.63-.38-.72-.75-.33-1.46-.23-3.26,1-4.07a3,3,0,0,1,2.63-.11,8.64,8.64,0,0,1,2.26,1.5,4.56,4.56,0,0,1,1.18-3.61,2.78,2.78,0,0,1,3.57-.31c.88.75,1.11,2.11,2.08,2.74a17.54,17.54,0,0,0-.22-2.6,2.72,2.72,0,0,1,.81-2.38c1-.79,2.61-.13,3.25,1a6.85,6.85,0,0,1,.56,3.76c.27-.8.68-1.73,1.51-1.89a2,2,0,0,1,1.81,1,4.68,4.68,0,0,1-.53,5.75"/><rect class="cls-16" x="135.14" y="212.04" width="51.34" height="10.73" rx="2.89"/><circle class="cls-18" cx="81.29" cy="170.74" r="16.88" transform="translate(-103.49 210.94) rotate(-76.81)"/><line class="cls-21" x1="81.29" y1="172.71" x2="81.29" y2="245.71"/><path class="cls-21" d="M69.48,214.33a23.49,23.49,0,0,0,11.81,13.38"/><line class="cls-21" x1="95.23" y1="188.96" x2="81.29" y2="212.08"/><line class="cls-22" x1="74.91" y1="245.71" x2="87.66" y2="245.71"/><line class="cls-23" x1="75.35" y1="160.29" x2="75.42" y2="163.04"/><line class="cls-23" x1="87.43" y1="176.27" x2="87.51" y2="179.01"/><line class="cls-23" x1="81.25" y1="166.27" x2="81.33" y2="169.02"/><line class="cls-23" x1="91.32" y1="166.27" x2="91.39" y2="169.02"/><line class="cls-23" x1="70.56" y1="171.92" x2="70.63" y2="174.66"/><line class="cls-23" x1="85.19" y1="160.29" x2="85.26" y2="163.04"/><line class="cls-23" x1="75.07" y1="176.27" x2="75.15" y2="179.01"/><circle class="cls-9" cx="46.27" cy="200.29" r="22.65"/><line class="cls-21" x1="46.27" y1="203.71" x2="46.27" y2="245.71"/><line class="cls-22" x1="39.6" y1="245.71" x2="52.35" y2="245.71"/><line class="cls-23" x1="38.4" y1="187.04" x2="38.47" y2="189.79"/><line class="cls-23" x1="50.06" y1="191.12" x2="50.13" y2="193.87"/><line class="cls-23" x1="55.43" y1="188.41" x2="55.5" y2="191.16"/><line class="cls-23" x1="41.18" y1="196.12" x2="41.25" y2="198.87"/><line class="cls-23" x1="34.73" y1="201.7" x2="34.81" y2="204.45"/><line class="cls-23" x1="52.23" y1="207.2" x2="52.31" y2="209.95"/><line class="cls-23" x1="57.49" y1="198.28" x2="57.56" y2="201.03"/><line class="cls-23" x1="38.89" y1="210.71" x2="38.97" y2="213.46"/><rect class="cls-19" x="277.68" y="181.16" width="5.22" height="65.28"/><rect class="cls-18" x="249.82" y="184.92" width="60.93" height="43.52"/><rect class="cls-24" x="277.68" y="228.44" width="5.22" height="1.51"/><rect class="cls-25" x="308.19" y="184.92" width="2.56" height="43.52"/><g class="cls-26"><line x1="249.82" y1="192.12" x2="265.6" y2="192.12"/><path d="M265.58,192.12h0Z"/><polygon points="265.19 192.11 265.2 192.11 265.14 192.11 265.19 192.11"/><path d="M264.83,192.11h0Z"/><path d="M264.64,192.08h0Z"/><path d="M264.68,192.08Z"/><path d="M264.5,192.08h0C264.46,192.07,264.47,192.07,264.5,192.08Z"/><path d="M264.46,192.08h0Z"/><path d="M264.54,192.08h0Z"/><path d="M264.57,192.08s.06,0,0,0C264.68,192.09,264.66,192.09,264.57,192.08Z"/><path d="M264.82,192.11h0Z"/><path d="M264.19,192.06h0Z"/><path d="M264.21,192.07h0S264.22,192.07,264.21,192.07Z"/><polygon points="264.45 192.1 264.54 192.09 264.43 192.1 264.45 192.1"/><polygon points="263.98 192.05 264.01 192.04 263.96 192.05 263.98 192.05"/><path d="M263.84,192s0,0,0,0h0Z"/><path d="M263.69,192h0Z"/><path d="M264.06,192.07h0Z"/><path d="M264,192.07Z"/><path d="M264.07,192.07h0Z"/><path d="M264.3,192.09s-.1,0,0,0S264.25,192.09,264.3,192.09Z"/><path d="M264.1,192.08h.06s0,0,0,0Z"/><polygon points="264.07 192.08 264.1 192.08 264.07 192.08 264.07 192.08"/><path d="M263.79,192.06h0S263.82,192.06,263.79,192.06Z"/><path d="M263.91,192.06Z"/><polygon points="263.4 192.05 263.4 192.05 263.4 192.05 263.4 192.05"/><path d="M263.81,192.07h0Z"/><path d="M263.6,192h0Z"/><path d="M263.9,192.06Z"/><path d="M263.9,192.06h0Z"/><path d="M263.3,192.13a.23.23,0,0,1,.13,0c.06,0,0,0,0-.07l-.06,0s.13,0,.08,0-.06,0-.1,0-.1,0-.08,0h.07S263.28,192.13,263.3,192.13Z"/><path d="M263.51,192.06h0l-.08,0h.06Z"/><path d="M263.64,192.06s-.07,0,0,0,0,0,.09,0c-.11,0,0,0-.05,0h0s0,0,0,0h0Z"/><path d="M264.21,192.12h0Z"/><path d="M264.16,192.11h0s0,0,0,0,.06,0,0,0h0l-.09,0A.06.06,0,0,0,264.16,192.11Z"/><path d="M263.9,192.09h0Z"/><polygon points="263.38 192.04 263.4 192.03 263.34 192.05 263.38 192.04"/><polygon points="263.26 192.04 263.27 192.03 263.24 192.03 263.26 192.04"/><path d="M256.37,192.42l0,0Z"/><path d="M256.57,192.42v0S256.56,192.42,256.57,192.42Z"/><path d="M260.26,191.94s-.08-.08-.08,0v0Z"/><polygon points="258.21 192.13 258.22 192.15 258.25 192.1 258.21 192.13"/><path d="M258.18,192.32l-.06,0Z"/><path d="M255.27,192.52l0,.07S255.27,192.56,255.27,192.52Z"/><path d="M262,192h-.09C262,192,262,192,262,192Z"/><path d="M256.45,191.84s0,0,0,0S256.45,191.85,256.45,191.84Z"/><path d="M261.82,192h.1A.16.16,0,0,0,261.82,192Z"/><path d="M251.31,192.61h0A0,0,0,0,0,251.31,192.61Z"/><path d="M250.16,191.72h0S250.18,191.7,250.16,191.72Z"/><path d="M262.77,192s0,0,0,0Z"/><path d="M262.9,192.08h0Z"/><path d="M261.57,192.12h0Z"/><path d="M262.81,192h0Z"/><path d="M262.8,192h0S262.83,192,262.8,192Z"/><path d="M262.73,192h0Z"/><path d="M253.43,192.34h0S253.41,192.36,253.43,192.34Z"/><polygon points="259.59 192.29 259.59 192.29 259.59 192.28 259.59 192.29"/><path d="M259.49,192.32a.07.07,0,0,1,.1,0l0-.11Z"/><path d="M255.89,192.46l.06,0c-.08.08-.13.06-.07.13,0-.18.25,0,.26-.21l0,0h0c.08.08.06-.13.17-.1s.06,0,0,0l.08,0s0,0,0,0l.13,0h0l.08-.09s0,0,0,0l.07,0s0,.08-.07.08c.06.16.05,0,.2.05l-.07,0c0,.09.1,0,.17.11s-.15-.14-.07-.18a.08.08,0,0,0,.09,0c0,.06,0,0,.09,0v.07c.05,0,.05-.06.08-.1s.07.07.09.11-.07-.08,0-.1.13,0,.23,0,0,0,0,.06l.05-.06s0,0,0,0,0-.07.07-.09.14.11.22,0,0,0,0,.07a1,1,0,0,0,.2-.12l.07,0c-.05,0,0-.11.09-.16l0,0,.1,0s0,0,0,.06h0s0,.06,0,.09l0,0a.24.24,0,0,0-.05.13l0,0a0,0,0,0,0,0,0l0,0,0,.07v0l.14.05a.7.7,0,0,1,.33-.21c0,.05,0,.08,0,.14s-.12,0-.2,0,0,0,0,0l.14-.06s0,0,.07.06.1-.07.16-.1,0,.06-.08.06c.08.07.1-.11.18-.06s0,0,0,0,.14,0,.12,0h0c.12,0,.35,0,.37-.08a.44.44,0,0,1,0,.1l.2-.24c0,.06.06.2,0,.24a.27.27,0,0,0,.12,0s0-.08,0-.09a1.46,1.46,0,0,0,.13.09s0-.11.05-.1,0,.09,0,.1l.11-.09s0,.07,0,.09.09,0,.12,0l0,0c.12,0,.12-.12.24-.11s0,.1,0,.11.13-.2.23-.23l0,0,.08,0a1.68,1.68,0,0,1-.28.24c.05,0,0,0,.08,0s0,0-.05,0h.16c0-.05.12-.05.12-.09l-.18,0s.1-.13.22-.13,0,.09,0,.1.11,0,.12,0l-.05,0c.06,0,.1-.06.18,0s.08,0,.08,0a.27.27,0,0,1,0-.23.56.56,0,0,1,.17.07s-.07.08,0,.12,0,0,0,0,0,0,0,0,.12,0,0,0h.13s.06-.08.12-.09a0,0,0,0,0,0,0l.3,0s.06,0,0,0a.08.08,0,0,1,.06,0c.07,0-.07,0,0,0s.09,0,.14,0-.12,0-.17,0,.09-.09.21-.11,0,0,.06,0c.17,0,.15-.06.29,0s0,0,0,.06a.81.81,0,0,1-.17,0h0a3.91,3.91,0,0,0,.43,0s.07,0,0,0h0s.08,0,0,0a.47.47,0,0,1,.21,0v0h-.07s.12,0,.16,0l-.06,0a.68.68,0,0,1,.21,0l-.07,0s-.19,0-.12,0-.09,0-.16,0,0,0,0,0h0l-.16,0s0,0,0,0l-.05,0s-.09,0,0-.05h-.07a.39.39,0,0,0-.15,0s-.09,0-.06,0h-.12a1.25,1.25,0,0,1-.38,0h-.14l0,0c-.05,0-.15,0-.17,0s-.25,0-.34,0v0a.69.69,0,0,0-.2,0v0c-.06,0-.17,0-.27,0h.05c-.12-.07-.26.05-.38,0h-.07l0,0,0,0h-.08l0,0h0s0,0,0,0l-.05,0c0-.06-.08,0-.12-.05s-.16,0-.18.09,0,0,0,0a.17.17,0,0,0-.1,0l0-.05-.08.07c-.05,0-.07,0,0-.09-.11.06-.09,0-.19.08v0s-.09,0-.12,0-.38,0-.58-.08c0,.11-.1-.05-.1,0s0,0,0-.06-.15-.05-.22,0,0,0,0,0,0,0-.05,0,0,0,0,0-.11.08-.12.16-.08,0-.12,0,0-.05,0-.06-.22-.05-.23,0-.05,0-.06,0h-.14c0,.08-.07,0-.14,0h0c-.15-.07-.07,0-.22,0V192c0,.11-.13-.07-.21,0l0,0c-.05,0-.13-.16-.18-.18s0,0,0,0,0,.08-.11.09,0-.1,0-.11-.17.13-.26.05,0,.06,0,.08-.18-.12-.24,0,0,0,0,0-.16,0-.19.1c-.05-.22-.31.1-.31-.1h-.15v0a.14.14,0,0,0-.16.08.05.05,0,0,1,0-.05c-.14,0-.15,0-.27.07v-.07s-.21-.12-.35,0,0,0,0,0c-.16.08-.38-.22-.44.05l-.1.07c.13,0,0,.12,0,.17s-.13-.09-.07-.1h0c0-.14-.17-.05-.16-.15-.27,0-.52-.09-.77-.11l0,.13h-.09s0-.1,0-.09-.1.05-.1.08,0-.14,0-.15h-.05v0c0,.05-.05.1-.12.09s0-.08,0-.08H253l0,.1s-.1,0,0,.11c-.07-.18-.4-.07-.45-.13s-.13.07-.22.06,0,.14,0,.13c0-.25-.13-.11-.19-.29.05.12-.2,0-.12.2-.06,0,0-.1,0-.16-.14.1-.31-.07-.49,0,0,0,0,.08,0,.13l-.09-.17s0,.2-.1.08c0,0,0,.07,0,.08-.34-.18-.7.14-1.05-.21.05.07,0,.08,0,.08s0,.09,0,.14l-.15-.14c0,.14-.15,0-.17.14l.05,0c-.06.16.08.36.07.56.07-.18.19.27.3,0,0,.05,0,.07,0,.12s.06-.11.13-.07v0c.18,0,.26.06.46.11l0-.1s.06,0,.08.07c.05-.15-.13,0-.08-.17.06.19.31,0,.34.21.07,0,0-.11.05-.11l0,.06,0-.07s.06.08.06.13,0,0,0,0,.16,0,.18,0l-.06,0c.18-.06.4,0,.58-.11l0,0c.14-.08.11,0,.26,0h0a.14.14,0,0,1,.11-.06s.07.09,0,.15c.15-.09.08-.07.17-.22l0,.07c0-.07,0-.1.11-.11s.05.1,0,.17c.16.14.23-.15.3.06.07-.18-.13-.1-.09-.14s.06-.13.11-.12.08.23.2.22,0,0,0,0,.09-.07.15,0c0-.1.07,0,.08-.12l-.11,0c.06,0,.12-.2.23-.12a.18.18,0,0,1-.07.08s.06,0,.1,0-.14,0-.21.14.13-.1.1,0c.05-.18.12,0,.2-.12v.08s0-.05.06-.05l0,.1c.07-.08.13.08.19,0-.13,0,0-.1-.08-.15.16-.11.09.2.28.15,0,0-.1,0-.06-.07a.18.18,0,0,1,.11.08c.13,0,0-.08,0-.13s.07,0,.12-.07v.08c.14,0,0-.16.17-.11l-.06.11.07,0v.09c.07-.07.09-.05.16,0s0-.14.07-.14,0,.07.07.06,0,.1-.08,0l0,.07s.12,0,.15,0h0l.13-.11s0,0,0,.07,0,0,.08-.05,0,.12-.06.15l.12-.07s.06.07.05.09.17-.12.26-.08l0,0c.09,0,.16.08.26,0l.06.09c.08,0-.08-.12.05-.16s0,.08.07.11.13-.15.21-.08S255.91,192.45,255.89,192.46Zm1-.08s-.05.06-.07,0S256.83,192.37,256.86,192.38Zm1.49-.16s0,0-.06,0Zm4.14-.2h0S262.46,192,262.49,192Zm.08,0h0Zm-9.41-.24v0S253.15,191.81,253.16,191.79Z"/><path d="M258.18,192.29v0S258.17,192.29,258.18,192.29Z"/><polygon points="255.28 192.51 255.28 192.51 255.27 192.53 255.28 192.51"/><path d="M261.22,192.24h0Z"/><path d="M263,192h0S263,192,263,192Z"/><path d="M263.53,192.12h0S263.49,192.12,263.53,192.12Z"/><path d="M263.09,192.07s0,0,.08,0h0S263.13,192.07,263.09,192.07Z"/><path d="M263.18,192.08h0Z"/><path d="M262.69,192s0,0,0,0S262.58,192,262.69,192Z"/><polygon points="263.12 192.12 263.11 192.1 263.09 192.12 263.12 192.12"/><path d="M262.81,192.11h.08S262.81,192.1,262.81,192.11Z"/><path d="M262.89,192.11h0Z"/><polygon points="263.04 192.13 263.02 192.12 262.97 192.12 263.04 192.13"/><path d="M262.14,192.1h0S262.15,192.11,262.14,192.1Z"/><path d="M262.34,192.16l0,0v0Z"/><path d="M262.14,192.17s-.1,0,0,0S262.21,192.18,262.14,192.17Z"/><polygon points="261.11 192.14 261.13 192.14 261.13 192.07 261.11 192.14"/><path d="M260.2,192.32c.08,0,0,0,.09,0s-.06,0,0,0S260.18,192.27,260.2,192.32Z"/><path d="M260.25,192.26h0Z"/><polygon points="249.97 191.59 249.91 191.54 249.95 191.62 249.97 191.59"/><path d="M249.87,191.75l0-.14,0,.13A0,0,0,0,1,249.87,191.75Z"/><path d="M257,192.54v0s0,0,0,0Z"/><polygon points="256.3 192.51 256.31 192.51 256.29 192.43 256.3 192.51"/><path d="M255.71,192.63s0,0,.07,0S255.7,192.53,255.71,192.63Z"/></g><g class="cls-26"><line x1="249.82" y1="212.28" x2="257.07" y2="212.28"/><path d="M257.06,212.28h0Z"/><polygon points="256.88 212.27 256.89 212.27 256.86 212.27 256.88 212.27"/><path d="M256.72,212.26h0Z"/><path d="M256.63,212.24h0Z"/><path d="M256.65,212.24Z"/><path d="M256.57,212.23h0Z"/><path d="M256.54,212.24h0Z"/><path d="M256.58,212.24h0Z"/><path d="M256.6,212.24s0,0,0,0S256.64,212.24,256.6,212.24Z"/><path d="M256.71,212.27h0Z"/><path d="M256.42,212.22h0Z"/><path d="M256.43,212.23h0Z"/><polygon points="256.54 212.25 256.58 212.25 256.53 212.25 256.54 212.25"/><polygon points="256.33 212.21 256.34 212.2 256.32 212.21 256.33 212.21"/><path d="M256.26,212.2s0,0,0,0h0Z"/><path d="M256.19,212.2h0Z"/><path d="M256.36,212.23h0Z"/><path d="M256.36,212.23h0Z"/><path d="M256.37,212.23h0Z"/><path d="M256.47,212.24s0,0,0,0S256.45,212.25,256.47,212.24Z"/><path d="M256.38,212.24h0s0,0,0,0Z"/><polygon points="256.37 212.24 256.38 212.24 256.37 212.24 256.37 212.24"/><path d="M256.24,212.21h0Z"/><path d="M256.29,212.22Z"/><polygon points="256.06 212.21 256.06 212.21 256.06 212.21 256.06 212.21"/><path d="M256.25,212.22h0Z"/><path d="M256.15,212.2h0S256.15,212.2,256.15,212.2Z"/><path d="M256.29,212.22Z"/><path d="M256.29,212.22h0Z"/><path d="M256,212.29a.06.06,0,0,1,.06,0s0-.05,0-.07h0s.06,0,0,0,0,0-.05,0,0,0,0,0h0Z"/><path d="M256.11,212.21h0l0,0,0,0Z"/><path d="M256.17,212.22s0,0,0,0h0c-.05,0,0,0,0,0h0s0,0,0,0h0Z"/><path d="M256.43,212.28h0S256.42,212.27,256.43,212.28Z"/><path d="M256.41,212.27h0s0,0,0,0h-.05Z"/><path d="M256.29,212.25h0Z"/><polygon points="256.05 212.2 256.06 212.19 256.03 212.2 256.05 212.2"/><polygon points="256 212.2 256 212.18 255.98 212.19 256 212.2"/><path d="M252.83,212.58v0Z"/><path d="M252.92,212.58v0Z"/><path d="M254.62,212.09s0-.07,0,0v0Z"/><polygon points="253.67 212.29 253.68 212.3 253.69 212.26 253.67 212.29"/><path d="M253.66,212.47l0,0Z"/><path d="M252.33,212.68l0,.07S252.32,212.71,252.33,212.68Z"/><path d="M255.42,212.16l0,0S255.42,212.18,255.42,212.16Z"/><path d="M252.86,212v0S252.87,212,252.86,212Z"/><path d="M255.34,212.14h0Z"/><path d="M250.51,212.77h0A0,0,0,0,0,250.51,212.77Z"/><path d="M250,211.87h0Z"/><path d="M255.77,212.17Z"/><path d="M255.83,212.24h0Z"/><path d="M255.22,212.28Z"/><path d="M255.79,212.18h0Z"/><path d="M255.79,212.17h0A0,0,0,0,0,255.79,212.17Z"/><path d="M255.75,212.17h0Z"/><path d="M251.48,212.5h0S251.47,212.52,251.48,212.5Z"/><polygon points="254.31 212.44 254.31 212.44 254.31 212.44 254.31 212.44"/><path d="M254.26,212.47s0,0,.05,0l0-.1Z"/><path d="M252.61,212.61l0,0c0,.09-.06.06,0,.14,0-.19.12,0,.12-.21l0,0h0c0,.08,0-.13.08-.11a0,0,0,0,1,0,.06l0,0s0,0,0,0l.06,0h0a.59.59,0,0,1,0-.08s0,0,0,0l0,0s0,.09,0,.08c0,.17,0,0,.09.05l0,0c0,.09.05,0,.08.11s-.07-.14,0-.19,0,0,0,0,0,0,0,0v.08s0-.06,0-.1,0,.06,0,.11,0-.09,0-.11.06,0,.11,0,0,0,0,.07l0-.06v0s0-.07,0-.09.07.11.1,0,0,.05,0,.07.05,0,.09-.12l0,0s0-.1,0-.15l0-.06,0,0a.18.18,0,0,1,0,.06v0s0,.06,0,.1l0,0a.6.6,0,0,0,0,.12h0v0l0,.07v0l.06,0c.05-.07.08-.18.16-.2a.32.32,0,0,0,0,.14c0-.07,0,0-.09,0s0,0,0,.05l.06-.06s0,0,0,0,0-.06.07-.09,0,.06,0,.05,0-.11.09-.05,0,0,0,0,.06,0,.05,0h0s.16,0,.17-.08l0,.11.1-.25c0,.07,0,.21,0,.24a0,0,0,0,0,.05,0s0-.09,0-.09,0,0,.07.08,0-.1,0-.1,0,.09,0,.1l0-.09a.17.17,0,0,0,0,.1s0,0,.06,0l0,0c.05,0,.05-.12.11-.12s0,.11,0,.12.06-.2.11-.23v0l0,0a1.41,1.41,0,0,1-.13.24s0,0,0,0,0,0,0,0h.08s0,0,0-.08l-.08,0s0-.14.1-.13,0,.08,0,.1,0,0,.06,0l0,0s0-.06.09,0,0,0,0,0a.49.49,0,0,1,0-.24l.07.07s0,.09,0,.12l0,0s0,0,0,0,.06,0,0,0,0,0,.06,0,0-.09.06-.1,0,0,0,0l.13,0s0,0,0,0l0,0s0,0,0,0,0,0,.07,0-.06,0-.08,0a.12.12,0,0,1,.1-.1s0,0,0,0,.07-.07.14,0,0,0,0,.06-.06,0-.08,0h0s0,0,0,0,.14,0,.2,0,0,0,0,0h0s0,0,0,0,.06,0,.1,0v0a0,0,0,0,0,0,0s.06,0,.07,0h0a.13.13,0,0,1,.09,0l0,0s-.09,0-.05,0,0,0-.08,0,0,0,0,0h0s-.05,0-.07,0,0,0,0,0h0s-.05,0,0,0h0a.09.09,0,0,0-.07,0h-.08c-.06,0-.11,0-.18,0h-.06v0s-.07,0-.08,0-.11,0-.16,0v0l-.09,0v0s-.07,0-.12,0h0c-.06-.07-.12,0-.17,0h0l0,0v0h0v0h0s0,0,0,0,0,0,0,0,0,0-.06,0-.07,0-.08.08h0s0,0,0,0v-.05l0,.07a.07.07,0,0,1,0-.09c0,.06,0,0-.08.08v0s0,0-.05,0-.18,0-.27-.08c0,.11,0-.06,0,0s0,0,0-.07-.07,0-.11,0,0,0,0-.06,0,0,0,0,0,0,0,0,0,.08,0,.16,0,0-.06,0,0-.06,0-.06-.1-.05-.1,0,0,0,0,0h-.07c0,.09,0,0-.06,0h0c-.07-.06,0,0-.09,0v0c0,.12-.06-.07-.1,0v0s-.06-.17-.08-.19,0,0,0,0,0,.07,0,.09,0-.1,0-.11-.08.12-.12,0,0,.07,0,.09-.08-.13-.11,0v0s-.07,0-.08.1c0-.22-.15.1-.15-.1h-.07v0c-.05,0-.06,0-.08.08s0,0,0,0-.07,0-.13.07v-.07s-.1-.12-.16,0v0c-.07.08-.17-.22-.2.05l0,.07c.06,0,0,.12,0,.16s-.06-.08,0-.1v0c0-.15-.07-.06-.07-.16s-.24-.08-.35-.1V212h0s0-.1,0-.09,0,.05,0,.08,0-.14,0-.15h0s0,.11-.05.1,0-.08,0-.08,0,0,0,0h0l0,.1c0,.05,0,0,0,.11,0-.18-.18-.08-.21-.13s-.06.07-.09.06,0,.14,0,.13c0-.25-.06-.11-.09-.29,0,.12-.09,0,0,.19,0,0,0-.09,0-.15-.06.09-.14-.07-.22,0a.34.34,0,0,1,0,.14l0-.17s0,.2,0,.07c0,0,0,.08,0,.09-.16-.18-.32.13-.48-.21,0,.07,0,.08,0,.08a.63.63,0,0,1,0,.14l-.07-.14c0,.14-.07,0-.08.14l0,0a4,4,0,0,0,0,.57c0-.18.08.26.14,0,0,0,0,.07,0,.11s0-.1.06-.06v0c.08,0,.11,0,.21.1v-.09s0,0,0,.06c0-.14-.05,0,0-.16,0,.19.14,0,.16.21,0,0,0-.11,0-.11v0s0,.09,0,.14,0,0,0,0,.07,0,.08,0l0,0c.08-.06.18,0,.27-.12v0c.06-.08.05.05.12,0h0s0-.07,0-.06,0,.09,0,.14,0-.06.08-.21v.06c0-.06,0-.09,0-.11s0,.1,0,.18.11-.15.14.06c0-.19-.06-.1,0-.14s0-.14.05-.12,0,.23.09.22h0s0-.06.07,0c0-.1,0,0,0-.13l-.06,0s.06-.2.11-.12a.26.26,0,0,1,0,.08s0,0,0,0-.06,0-.09.14.06-.1,0,0c0-.18.06,0,.1-.12v.08s0-.05,0-.05l0,.1c0-.09.06.07.09,0s0-.09,0-.14,0,.19.14.15,0,0,0-.08a.16.16,0,0,1,.05.08c.06,0,0-.07,0-.12s0,0,.06-.07v.07c.06,0,0-.15.07-.1l0,.11,0,0v.08c0-.06.05,0,.08,0s0-.13,0-.13,0,.07,0,.05,0,.11,0,0l0,.07c0,.05.06,0,.07,0v0l.06-.1a.09.09,0,0,1,0,.07s0,0,0,0,0,.12,0,.15l.06-.07s0,.06,0,.09.08-.12.12-.08a0,0,0,0,1,0,0s.08.07.12,0l0,.1s0-.12,0-.16,0,.08,0,.1,0-.14.09-.07S252.62,212.6,252.61,212.61Zm.45-.07s0,.05,0,0S253,212.52,253.06,212.54Zm.68-.16s0,0,0,0Zm1.9-.2h0S255.63,212.17,255.64,212.18Zm0,0h0Zm-4.33-.24v0S251.35,212,251.35,212Z"/><path d="M253.66,212.45v0A0,0,0,0,0,253.66,212.45Z"/><polygon points="252.33 212.67 252.33 212.67 252.33 212.68 252.33 212.67"/><path d="M255.06,212.4l0,0S255,212.4,255.06,212.4Z"/><path d="M255.89,212.17h0Z"/><path d="M256.12,212.28h0S256.1,212.28,256.12,212.28Z"/><path d="M255.92,212.23s0,0,0,0h0S255.94,212.23,255.92,212.23Z"/><path d="M256,212.24h0S256,212.24,256,212.24Z"/><path d="M255.73,212.18s0,0,0,0S255.68,212.19,255.73,212.18Z"/><polygon points="255.93 212.28 255.93 212.26 255.92 212.27 255.93 212.28"/><path d="M255.79,212.26h0Z"/><path d="M255.83,212.26h0Z"/><polygon points="255.89 212.28 255.88 212.28 255.86 212.28 255.89 212.28"/><path d="M255.48,212.26h0s0,0,0,0Z"/><path d="M255.57,212.32v0Z"/><path d="M255.48,212.33s0,0,0,0S255.51,212.33,255.48,212.33Z"/><polygon points="255.01 212.29 255.02 212.29 255.01 212.23 255.01 212.29"/><path d="M254.59,212.48s0,0,0,0,0,0,0,0S254.58,212.43,254.59,212.48Z"/><path d="M254.61,212.42h0Z"/><polygon points="249.89 211.75 249.86 211.7 249.88 211.78 249.89 211.75"/><path d="M249.84,211.91v-.14l0,.13S249.84,211.88,249.84,211.91Z"/><path d="M253.12,212.69v0l0,0Z"/><polygon points="252.8 212.66 252.8 212.66 252.79 212.59 252.8 212.66"/><path d="M252.52,212.79s0,0,0,0S252.52,212.69,252.52,212.79Z"/></g><g class="cls-26"><line x1="310.75" y1="223.13" x2="299.94" y2="223.13"/><path d="M300,223.13h0Z"/><polygon points="300.22 223.14 300.21 223.14 300.25 223.14 300.22 223.14"/><path d="M300.46,223.15h0Z"/><path d="M300.59,223.17h0Z"/><path d="M300.57,223.17Z"/><path d="M300.69,223.17h0S300.71,223.18,300.69,223.17Z"/><path d="M300.72,223.17h0Z"/><path d="M300.67,223.17h0Z"/><path d="M300.64,223.17s0,0,0,0S300.58,223.17,300.64,223.17Z"/><path d="M300.48,223.14h0Z"/><path d="M300.9,223.19h0Z"/><path d="M300.89,223.18h0Z"/><polygon points="300.73 223.16 300.67 223.16 300.74 223.16 300.73 223.16"/><polygon points="301.05 223.2 301.02 223.21 301.06 223.2 301.05 223.2"/><path d="M301.14,223.21s0,0,0,0h0Z"/><path d="M301.25,223.21h0Z"/><path d="M301,223.18h0Z"/><path d="M301,223.18Z"/><path d="M301,223.18Z"/><path d="M300.83,223.17s.06,0,0,0S300.86,223.16,300.83,223.17Z"/><path d="M301,223.17h0s0,0,0,0Z"/><polygon points="300.99 223.17 300.97 223.17 300.98 223.17 300.99 223.17"/><path d="M301.18,223.2h0S301.15,223.2,301.18,223.2Z"/><path d="M301.09,223.19h0Z"/><polygon points="301.45 223.2 301.44 223.2 301.44 223.2 301.45 223.2"/><path d="M301.16,223.18h0Z"/><path d="M301.31,223.21h0Z"/><path d="M301.1,223.19Z"/><path d="M301.1,223.19h0Z"/><path d="M301.51,223.12s-.05,0-.09,0,0,.05,0,.07h.05s-.09,0-.06,0,0,0,.07,0,.07,0,.06,0h-.05S301.52,223.12,301.51,223.12Z"/><path d="M301.37,223.2h0l.06,0s0,0,0,0h-.07Z"/><path d="M301.28,223.19s.05,0,0,0,0,0-.06,0,0,0,0,0h0s0,0,0,0h0Z"/><path d="M300.89,223.13h0S300.9,223.13,300.89,223.13Z"/><path d="M300.92,223.14h0s0,0,0,0H301Z"/><path d="M301.1,223.16h0Z"/><polygon points="301.46 223.21 301.45 223.22 301.48 223.21 301.46 223.21"/><polygon points="301.54 223.21 301.54 223.23 301.56 223.22 301.54 223.21"/><path d="M306.27,222.83v0S306.27,222.82,306.27,222.83Z"/><path d="M306.13,222.83v0Z"/><path d="M303.6,223.31s0,.08,0,0v0S303.61,223.32,303.6,223.31Z"/><polygon points="305 223.12 305 223.11 304.98 223.15 305 223.12"/><path d="M305,222.94l0,0Z"/><path d="M307,222.73l0-.07S307,222.7,307,222.73Z"/><path d="M302.4,223.25l.06,0S302.4,223.23,302.4,223.25Z"/><path d="M306.21,223.41l0,0Z"/><path d="M302.53,223.27h0Z"/><path d="M309.73,222.64h0A0,0,0,0,0,309.73,222.64Z"/><path d="M310.52,223.54h0A0,0,0,0,0,310.52,223.54Z"/><path d="M301.88,223.24Z"/><path d="M301.79,223.17h0Z"/><path d="M302.7,223.13Z"/><path d="M301.85,223.23h0Z"/><path d="M301.85,223.24h0A0,0,0,0,0,301.85,223.24Z"/><path d="M301.9,223.24h0Z"/><path d="M308.28,222.91h0S308.29,222.89,308.28,222.91Z"/><polygon points="304.06 222.96 304.06 222.97 304.06 222.97 304.06 222.96"/><path d="M304.12,222.93s0,0-.06,0l0,.1Z"/><path d="M306.59,222.8l0-.05c.05-.09.09-.07.05-.14,0,.19-.17,0-.18.21l0,0h0c-.06-.08,0,.13-.12.11s0,0,0-.06l-.06,0s0,0,0,0l-.09,0h0l-.06.08s0,0,0,0l-.05,0s0-.09.05-.08c0-.17,0,0-.14-.05l.05,0c0-.09-.07,0-.12-.11s.11.14.05.19,0,0-.06,0,0,0-.06,0v-.08s0,.06-.06.1-.05-.06-.06-.11.05.09,0,.11-.09,0-.16,0,0,0,0-.07l0,.06s0,0,0,0,0,.08-.05.1-.09-.11-.15,0,0-.05,0-.07-.07,0-.13.12l-.06,0s0,.1-.05.15l0,.06-.07,0s0,0,0-.06v0a.08.08,0,0,1,0-.1l0,0a.7.7,0,0,0,0-.12h0a0,0,0,0,0,0,0s0,0,0,0l0-.07v0l-.1,0c-.06.07-.12.18-.23.2s0-.08,0-.14.08,0,.14,0,0,0,0-.05l-.1.06s0,0,0,0-.07.06-.11.09,0-.06.05-.06-.07.12-.12.06,0,0,0,0-.09,0-.08,0h0c-.07,0-.24,0-.25.08a.52.52,0,0,1,0-.11l-.14.24c0-.06,0-.2,0-.23a.08.08,0,0,0-.08,0s0,.09,0,.09a.76.76,0,0,0-.09-.09s0,.11,0,.11,0-.09,0-.1l-.07.09s0-.08,0-.1-.06,0-.08,0l0,0c-.08,0-.08.12-.17.12s0-.11,0-.12-.08.2-.16.23v0l-.06,0,.19-.24s0,0-.06,0,0,0,0,0h-.11s-.08,0-.08.08l.12,0s-.07.14-.15.13,0-.08,0-.1-.08,0-.08,0l0,0s-.07.06-.13,0-.05,0-.05,0a.4.4,0,0,1,0,.24l-.11-.07s0-.09,0-.12l0,0s0,0,0,0-.09,0,0,0-.05,0-.09,0-.05.09-.09.1a0,0,0,0,0,0,0l-.2,0s-.05,0,0,0h-.05s.06,0,0,0-.06,0-.1,0,.08,0,.12,0-.06.09-.14.1,0,0,0,0-.11.06-.21,0,0,0,0-.06.08,0,.12,0l0,0h.07a2.23,2.23,0,0,0-.3,0s-.05,0,0,0h0s-.06,0,0,0a.32.32,0,0,1-.14,0v0s0,0,.05,0-.09,0-.11,0h0a.32.32,0,0,1-.14,0l.05,0s.12,0,.07,0,.07,0,.11,0,0,0,0,0h0l0,0,.1,0s0,0,0,0h0s.07,0,0,0h0a.17.17,0,0,0,.1,0h.12a.58.58,0,0,1,.26,0h.1v0s.11,0,.12,0,.17,0,.23,0v0l.13,0v0s.12,0,.19,0h0c.09.07.18,0,.26,0h.11v0h0s0,0,0,0,0,0,0,0,.06,0,.09,0,.11,0,.12-.08,0,0,0,0,.05,0,.08,0v.05l0-.07s.05,0,0,.09.07,0,.14-.08v0s.06,0,.08,0,.26,0,.4.08c0-.11.06.06.07,0s0,0,0,.07.1,0,.15,0,0,0,0,.06,0,0,0,0,0,0,0,0,.08-.08.08-.16.06,0,.08,0,0,.06,0,.06.16.05.16,0,0,0,0,0h.12l0,0c0-.08.05,0,.09,0h0c.1.06,0,0,.14,0v0c0-.12.09.07.15,0l0,0s.08.17.12.18,0,0,0,0,0-.07.07-.09,0,.1,0,.11.12-.13.18,0,0-.07,0-.09.12.13.16,0a0,0,0,0,1,0,0s.11,0,.13-.1c0,.22.21-.1.21.1h.1v0c.07,0,.09,0,.12-.09s0,0,0,.05.11,0,.19-.07v.07s.14.12.23,0a0,0,0,0,1,0,0c.11-.08.26.22.3-.05l.07-.07c-.09,0,0-.12,0-.16s.09.08.05.09h0c0,.15.11.05.11.15a4.52,4.52,0,0,1,.53.11l0-.12h.06s0,.1,0,.09.07-.05.07-.08,0,.14,0,.15h0s0-.11.08-.1,0,.08,0,.08,0,0,0,0h.07l0-.1s.07,0,0-.11c.05.18.28.07.31.13a.12.12,0,0,1,.15-.06s0-.14,0-.13c0,.25.09.11.13.29,0-.12.14,0,.08-.19.05,0,0,.09,0,.15.09-.09.21.07.33,0s0-.09,0-.14l.06.17s0-.2.07-.07c0,0,0-.08,0-.09.23.18.48-.13.72.21,0-.07,0-.08,0-.08s0-.09,0-.14l.1.14c0-.14.1,0,.11-.14l0,0c0-.17-.06-.36-.05-.57-.05.18-.12-.26-.2,0,0,0,0-.07,0-.11s0,.1-.08.06v0c-.12,0-.17-.06-.31-.1v.09s0,0-.05-.06c0,.14.08,0,.05.16,0-.19-.21,0-.24-.21,0,0,0,.11,0,.11v0a.2.2,0,0,1-.05-.14s0,0,0,0-.11,0-.12,0l0,0c-.12.06-.28,0-.4.11v.05c-.09.08-.07-.05-.17,0h0s0,.06-.07.06,0-.09,0-.14-.05.06-.11.21l0-.06c0,.06,0,.09-.07.11s0-.1,0-.18-.16.15-.2-.06c-.05.18.09.1.06.14s0,.14-.07.12-.06-.23-.15-.22h0s-.06.06-.1,0c0,.1-.05,0-.06.13l.08,0s-.08.2-.16.12a.35.35,0,0,1,0-.08s0,0-.07,0,.1,0,.14-.14-.08.1-.06,0c0,.18-.08,0-.14.12v-.08s0,.05,0,.05l0-.1c-.05.09-.09-.07-.14,0,.1,0,0,.09.06.14-.11.11-.06-.2-.19-.15s.06,0,0,.08a.2.2,0,0,1-.08-.08c-.08,0,0,.07,0,.12s0,0-.08.07v-.07c-.1-.05,0,.15-.11.1l0-.11,0,0v-.08c-.05.06-.07,0-.12,0s0,.14-.05.14,0-.07,0-.06,0-.1,0,0l0-.07c0-.05-.08,0-.1,0a0,0,0,0,1,0,0l-.09.1a.08.08,0,0,1,0-.07s0,0-.06.05,0-.12.05-.15l-.09.07s0-.06,0-.09-.11.12-.18.08l0,0c-.06,0-.11-.07-.18,0l0-.1s.05.12,0,.16,0-.08,0-.11-.09.15-.15.08A.05.05,0,0,1,306.59,222.8Zm-.67.07s0-.05.05,0S306,222.89,305.92,222.87Zm-1,.16s0,0,0,0Zm-2.84.2Zm-.06,0s0,0,0,0h0Zm6.46.24,0,0S308.47,223.44,308.47,223.46Z"/><path d="M305,223a0,0,0,0,1,0,0A0,0,0,0,0,305,223Z"/><polygon points="307.01 222.74 307.01 222.74 307.01 222.73 307.01 222.74"/><path d="M302.94,223l0,0S303,223,302.94,223Z"/><path d="M301.69,223.24h0A0,0,0,0,1,301.69,223.24Z"/><path d="M301.36,223.13h0S301.38,223.13,301.36,223.13Z"/><path d="M301.66,223.18s0,0-.06,0h0S301.63,223.18,301.66,223.18Z"/><path d="M301.6,223.17h0S301.58,223.17,301.6,223.17Z"/><path d="M301.93,223.23s0,0,0,0S302,223.22,301.93,223.23Z"/><polygon points="301.63 223.13 301.64 223.15 301.66 223.13 301.63 223.13"/><path d="M301.85,223.15h-.05a0,0,0,0,1,0,0Z"/><path d="M301.79,223.15h0Z"/><polygon points="301.69 223.13 301.71 223.13 301.74 223.13 301.69 223.13"/><path d="M302.31,223.15h.05s0,0,0,0Z"/><path d="M302.17,223.09l0,0v0Z"/><path d="M302.31,223.08s.06,0,0,0S302.26,223.08,302.31,223.08Z"/><polygon points="303.01 223.12 303 223.12 303 223.18 303.01 223.12"/><path d="M303.64,222.93c-.06,0,0,0-.06,0s0,0,0,0S303.65,223,303.64,222.93Z"/><path d="M303.6,223h0Z"/><polygon points="310.65 223.66 310.69 223.71 310.67 223.63 310.65 223.66"/><path d="M310.72,223.5v.14l0-.13S310.73,223.53,310.72,223.5Z"/><path d="M305.83,222.72v0s0,0,0,0Z"/><polygon points="306.31 222.75 306.3 222.74 306.32 222.82 306.31 222.75"/><path d="M306.72,222.62s0,0-.05,0S306.72,222.72,306.72,222.62Z"/></g><g class="cls-26"><line x1="310.75" y1="220.88" x2="305.35" y2="220.88"/><path d="M305.35,220.88Z"/><polygon points="305.48 220.89 305.48 220.89 305.5 220.89 305.48 220.89"/><path d="M305.61,220.9h0Z"/><path d="M305.67,220.92h0Z"/><path d="M305.66,220.92s0,0,0,0Z"/><path d="M305.72,220.93h0Z"/><path d="M305.74,220.92h0Z"/><path d="M305.71,220.92h0Z"/><path d="M305.7,220.92h0S305.67,220.92,305.7,220.92Z"/><path d="M305.61,220.89h0Z"/><path d="M305.83,221v0h0Z"/><path d="M305.82,220.93h0Z"/><polygon points="305.74 220.91 305.71 220.91 305.75 220.91 305.74 220.91"/><polygon points="305.9 220.96 305.89 220.96 305.91 220.95 305.9 220.96"/><path d="M306,221s0,0,0,0h0Z"/><path d="M306,221h0Z"/><path d="M305.87,220.93l0,0h0Z"/><path d="M305.88,220.94Z"/><path d="M305.87,220.93Z"/><path d="M305.79,220.92s0,0,0,0S305.81,220.91,305.79,220.92Z"/><path d="M305.86,220.92h0Z"/><polygon points="305.87 220.92 305.86 220.92 305.87 220.92 305.87 220.92"/><path d="M306,221h0S306,221,306,221Z"/><path d="M305.92,220.94h0Z"/><polygon points="306.1 220.96 306.1 220.95 306.1 220.96 306.1 220.96"/><path d="M306,220.94h0Z"/><path d="M306,221h0Z"/><path d="M305.93,220.94Z"/><path d="M305.93,220.94h0Z"/><path d="M306.13,220.87a0,0,0,0,1,0,0s0,.05,0,.07h0s-.05,0,0,0,0,0,0,0,0,0,0,0h0S306.14,220.87,306.13,220.87Z"/><path d="M306.06,221h0l0,0h0Z"/><path d="M306,221s0,0,0,0h0s0,0,0,0h0Z"/><path d="M305.82,220.89Z"/><path d="M305.84,220.89a0,0,0,0,1,0,0h0s0,0,0,0h0Z"/><path d="M305.93,220.91h0Z"/><polygon points="306.1 220.96 306.1 220.98 306.12 220.96 306.1 220.96"/><polygon points="306.15 220.97 306.14 220.98 306.15 220.97 306.15 220.97"/><path d="M308.51,220.58h0Z"/><path d="M308.44,220.58v0Z"/><path d="M307.17,221.07s0,.07,0,0v0S307.18,221.07,307.17,221.07Z"/><polygon points="307.88 220.87 307.88 220.86 307.87 220.9 307.88 220.87"/><path d="M307.89,220.69l0,0Z"/><path d="M308.88,220.48v-.06S308.88,220.45,308.88,220.48Z"/><path d="M306.57,221s0,0,0,0S306.58,221,306.57,221Z"/><path d="M308.48,221.16s0,0,0,0A0,0,0,0,0,308.48,221.16Z"/><path d="M306.64,221h0Z"/><path d="M310.24,220.4h0Z"/><path d="M310.64,221.29h0S310.63,221.3,310.64,221.29Z"/><path d="M306.31,221Z"/><path d="M306.27,220.92h0Z"/><path d="M306.73,220.88Z"/><path d="M306.3,221h0Z"/><path d="M306.3,221h0Z"/><path d="M306.33,221h0Z"/><path d="M309.51,220.66h0S309.52,220.64,309.51,220.66Z"/><polygon points="307.4 220.72 307.4 220.72 307.41 220.72 307.4 220.72"/><path d="M307.44,220.69s0,0,0,0v.1Z"/><path d="M308.67,220.55l0-.05c0-.09.05-.06,0-.13,0,.18-.09,0-.09.21l0,0h0c0-.08,0,.13-.06.11a.06.06,0,0,1,0-.06l0,0s0,0,0,0h0l0,.09s0,0,0,0l0,0s0-.09,0-.08c0-.17,0,0-.07-.05l0,0c0-.1,0-.06-.06-.11s.05.14,0,.18,0,0,0,0,0,0,0,0v-.08a.38.38,0,0,0,0,.1s0-.06,0-.11,0,.09,0,.11-.05,0-.08,0,0,0,0-.06l0,0v0s0,.07,0,.09,0-.11-.07,0,0,0,0-.07a.63.63,0,0,0-.07.12l0,0a.2.2,0,0,1,0,.15l0,.06,0,0a.18.18,0,0,1,0-.06v0a.17.17,0,0,1,0-.1v0a.5.5,0,0,0,0-.12v0s0,0,0,0v0l-.05,0c0,.07-.06.18-.11.21a.66.66,0,0,0,0-.14c0,.06,0,0,.07,0s0,0,0-.05l-.05.06s0,0,0,0,0,.06-.06.09,0-.06,0-.05,0,.11-.06.05,0,0,0,0-.05,0,0,0h0a.11.11,0,0,0-.13.08v-.1l-.07.24c0-.06,0-.21,0-.24s0,0,0,0,0,.09,0,.09,0,0-.05-.08a.16.16,0,0,1,0,.1v-.1l0,.09a.17.17,0,0,0,0-.1s0,0,0,0v0s0,.12-.08.12,0-.11,0-.12a.78.78,0,0,1-.08.23v0l0,0s.07-.18.1-.24,0,0,0,0,0,0,0,0h-.06s0,0,0,.09l.06-.06s0,.14-.07.13,0-.08,0-.1,0,0,0,0l0,0s0,.06-.06,0,0,0,0,0a1,1,0,0,1,0,.24l-.06-.07s0-.09,0-.12v0s0,0,0,0,0,0,0,0,0,0-.05,0a.12.12,0,0,1,0,.1v0l-.11,0s0,0,0,0,0,0,0,0,0,0,0,0a.1.1,0,0,1-.05,0s0,0,.05,0a.1.1,0,0,1-.07.1s0,0,0,0-.05.07-.1,0,0-.05,0-.07,0,0,.06,0h0s0,0,0,0-.1,0-.15,0l0,0h0s0,0,0,0,0,0-.07,0v0s0,0,0,0,0,0,0,0h0l-.06,0s0,0,0,0,.06,0,0,0l0,.05s0,0,0,0h0s0,0,0,0,0,0,0,0h0s0,0,0,0h0a.06.06,0,0,0,.05,0h.06s.09,0,.13,0h.05v0s.05,0,.06,0,.08,0,.11,0v0l.07,0v0s.06,0,.09,0h0c0,.07.09,0,.13,0s0,0,0,0h0v0h0v0h0s0,0,0,0l0,0c0,.06,0,0,0,0s.05,0,.06-.08h0s0,0,0,0V221l0-.07s0,0,0,.09,0,0,.07-.08v0s0,0,0,0,.13,0,.2.09c0-.12,0,0,0,0a.09.09,0,0,1,0,.07s.06,0,.08,0,0,0,0,.06h0a.06.06,0,0,1,0,0s0-.09,0-.17,0,0,0,0,0,.06,0,.07.07,0,.08,0,0,0,0,0H308c0-.09,0,0,0,0h0c.05.06,0,0,.07,0v0c0-.12.05.07.07,0v0s.05.17.06.19,0,0,0,0,0-.07,0-.09,0,.1,0,.11.07-.12.09,0,0-.07,0-.09.06.13.08,0v0a.16.16,0,0,0,.07-.1c0,.22.1-.1.1.11h0v0s.05,0,.06-.08,0,0,0,0,.05,0,.09-.07v.08c0-.05.07.11.12,0a0,0,0,0,1,0,0c.06-.08.13.22.15-.05l0-.07c-.05,0,0-.12,0-.16s.05.08,0,.1v0c0,.15.05.06.05.16s.18.08.27.1v-.12h0s0,.09,0,.09,0-.06,0-.09,0,.15,0,.15h0s0-.11,0-.1,0,.08,0,.09h0v-.1s0,0,0-.1c0,.17.13.07.15.12s.05-.07.07-.06,0-.14,0-.12c0,.24,0,.1.06.28,0-.12.07,0,0-.19,0,0,0,.09,0,.15.05-.09.11.08.17,0a.65.65,0,0,1,0-.14l0,.17s0-.19,0-.07v-.09c.12.18.24-.13.36.22,0-.08,0-.08,0-.09a.63.63,0,0,1,0-.14l.05.15c0-.15.05,0,.06-.15l0,0c0-.16,0-.36,0-.57,0,.19-.07-.26-.1,0a.41.41,0,0,1,0-.11c0,.08,0,.1,0,.07v0c-.06,0-.09,0-.16-.1v.09s0,0,0-.06c0,.15,0,0,0,.17,0-.2-.11,0-.12-.22,0,0,0,.11,0,.11v0a.41.41,0,0,1,0-.14h0c0-.07-.05,0-.06,0l0,0c-.06.06-.14,0-.2.11v0c-.05.08,0-.05-.09,0h0c0,.05,0,.07,0,.06s0-.09,0-.14,0,.06-.06.21v-.06c0,.06,0,.09,0,.11s0-.1,0-.18-.08.15-.1,0c0,.18,0,.09,0,.13s0,.14,0,.12,0-.23-.07-.22h0s0,.06-.05,0c0,.11,0,0,0,.13l0,0s0,.19-.08.12a.37.37,0,0,0,0-.09s0,0,0,0,0,0,.07-.14,0,.11,0,0c0,.18,0,0-.07.12v-.08s0,.05,0,.05v-.1c0,.09,0-.07-.06,0s0,.09,0,.15,0-.2-.1-.16,0,0,0,.08a.29.29,0,0,1,0-.08s0,.08,0,.12,0,0,0,.07v-.07c-.05-.05,0,.16-.06.1l0-.11,0,0v-.08c0,.06,0,0-.05,0s0,.13,0,.13,0-.07,0-.05,0-.11,0,0v-.07c0-.05,0,0-.05,0s0,0,0,0l-.05.1a.17.17,0,0,1,0-.07l0,.05a.32.32,0,0,1,0-.15l0,.07a.24.24,0,0,1,0-.08s-.06.11-.09.07a0,0,0,0,1,0,0s-.05-.07-.09,0l0-.1s0,.12,0,.16,0-.08,0-.1,0,.15-.07.07S308.66,220.56,308.67,220.55Zm-.33.07s0-.05,0,0S308.35,220.64,308.34,220.62Zm-.51.16s0,0,0,0Zm-1.42.2h0S306.42,221,306.41,221Zm0,0h0Zm3.23.24v0S309.61,221.19,309.61,221.21Z"/><path d="M307.89,220.71v0Z"/><polygon points="308.88 220.49 308.88 220.49 308.88 220.48 308.88 220.49"/><path d="M306.85,220.76s0,0,0,0Z"/><path d="M306.22,221h0S306.23,221,306.22,221Z"/><path d="M306.06,220.88h0Z"/><path d="M306.2,220.93s0,0,0,0h0S306.19,220.94,306.2,220.93Z"/><path d="M306.17,220.92h0S306.17,220.92,306.17,220.92Z"/><path d="M306.34,221h0S306.38,221,306.34,221Z"/><polygon points="306.19 220.88 306.2 220.9 306.21 220.89 306.19 220.88"/><path d="M306.3,220.9h0Z"/><path d="M306.27,220.9h0Z"/><polygon points="306.22 220.88 306.23 220.88 306.25 220.88 306.22 220.88"/><path d="M306.53,220.91h0s0,0,0,0Z"/><path d="M306.46,220.84s0,0,0,0v0Z"/><path d="M306.53,220.83s0,0,0,0S306.51,220.83,306.53,220.83Z"/><polygon points="306.88 220.87 306.88 220.87 306.88 220.93 306.88 220.87"/><path d="M307.2,220.68s0,0,0,0,0,0,0,0S307.2,220.73,307.2,220.68Z"/><path d="M307.18,220.74h0Z"/><polygon points="310.7 221.41 310.72 221.46 310.71 221.38 310.7 221.41"/><path d="M310.74,221.25v0S310.74,221.28,310.74,221.25Z"/><path d="M308.29,220.47v0s0,0,0,0Z"/><polygon points="308.53 220.5 308.53 220.5 308.54 220.57 308.53 220.5"/><path d="M308.74,220.37l0,0S308.74,220.47,308.74,220.37Z"/></g><path class="cls-16" d="M264.75,195.51h7.74v1.77h-4.2V199h4v1.77h-4v3.13h-3.54Z"/><path class="cls-16" d="M283.67,202.69a6.3,6.3,0,0,1-4.54,1.46c-4.12,0-5.63-1.91-5.63-4.43a4.09,4.09,0,0,1,1.62-3.5c.8-.57,1.84-.93,4-.93,4.12,0,5.64,1.91,5.64,4.43A4,4,0,0,1,283.67,202.69Zm-4.54-5.49c-1.16,0-2,.79-2,2.52s.86,2.52,2,2.52,2-.8,2-2.52S280.3,197.2,279.13,197.2Z"/><path class="cls-16" d="M286.37,195.51h6c2.29,0,3.72.45,3.72,2.32a2,2,0,0,1-1.82,2v.12c.81,0,1.49.31,1.63,1.17l.45,2.82h-3.54l-.29-1.88c-.17-1-.32-1.18-1.53-1.18h-1.07v3.06h-3.55Zm3.55,3.73h1.35c.76,0,1.34-.23,1.34-1s-.54-1-1.4-1h-1.29Z"/><path class="cls-16" d="M263.24,215.23a1.39,1.39,0,0,0,.33,1,1.37,1.37,0,0,0,1,.34c.73,0,1.53-.17,1.53-.85a.61.61,0,0,0-.15-.39c-.48-.53-4.51-.93-5.64-1.92a2,2,0,0,1-.59-1.47c0-1.84,1.69-2.67,5.06-2.67,3.58,0,4.67,1,4.71,2.73H266a1.1,1.1,0,0,0-.44-.93,1.71,1.71,0,0,0-1-.24c-.75,0-1.15.28-1.15.71a.53.53,0,0,0,.16.39c.54.52,4.44.9,5.56,1.9a1.94,1.94,0,0,1,.66,1.56c0,1.67-1.47,2.74-5.3,2.74-4.58,0-4.8-1.36-4.87-2.92Z"/><path class="cls-16" d="M274.61,209.51H279l4.29,8.42h-3.91l-.62-1.4h-4.35l-.65,1.4h-3.48Zm3.35,5.18-1.3-2.94-1.37,2.94Z"/><path class="cls-16" d="M284.2,209.51h3.55v6.37h3.88v2.05H284.2Z"/><path class="cls-16" d="M292.86,209.51h8.07v1.77h-4.64v1.56h4.35v1.77h-4.35v1.55H301v1.77h-8.12Z"/></g></g></g></svg>