<svg xmlns="http://www.w3.org/2000/svg" xmlns:xlink="http://www.w3.org/1999/xlink" viewBox="0 0 392.69 333.25"><defs><style>.cls-1,.cls-21,.cls-22,.cls-26,.cls-27,.cls-51{fill:none;}.cls-2{isolation:isolate;}.cls-3{fill:#f7f9fc;}.cls-32,.cls-4{opacity:0.2;}.cls-5{fill:#b1d665;}.cls-6{fill:#f5cb3b;}.cls-7{fill:#4a4b4d;opacity:0.15;}.cls-46,.cls-50,.cls-7{mix-blend-mode:multiply;}.cls-8{fill:#707676;}.cls-9{clip-path:url(#clip-path);}.cls-10{fill:#505656;}.cls-11{fill:#5d6162;}.cls-12{fill:#e3e8e4;}.cls-13{fill:#85674d;}.cls-14{fill:#a68b6d;}.cls-15{fill:#e0b232;}.cls-16{fill:#5ca09f;}.cls-17{fill:#5a6a8c;}.cls-18{fill:#c4aa90;}.cls-19{fill:#a0c152;}.cls-20{fill:#256b62;}.cls-21{stroke:#092242;}.cls-21,.cls-22,.cls-26,.cls-27,.cls-51{stroke-miterlimit:10;}.cls-21,.cls-22,.cls-26,.cls-27{stroke-width:0.73px;}.cls-22{stroke:#cfbf8b;}.cls-23{fill:#f6ae39;}.cls-24{fill:#f04148;}.cls-25{fill:#f7ac2d;}.cls-26{stroke:#6b3e00;}.cls-27{stroke:#c76c1f;}.cls-28,.cls-54{fill:#fff;}.cls-29{fill:url(#Degradado_sin_nombre_11);}.cls-30{fill:url(#Degradado_sin_nombre_11-2);}.cls-31{fill:#97c177;}.cls-32{fill:#231f20;}.cls-33{fill:#041925;}.cls-34{fill:#02123b;}.cls-35,.cls-42{opacity:0.31;}.cls-35{fill:url(#Degradado_sin_nombre_10);}.cls-36{fill:url(#Degradado_sin_nombre_9);}.cls-37{fill:url(#Degradado_sin_nombre_7);}.cls-38{opacity:0.53;}.cls-39{fill:url(#linear-gradient);}.cls-40{fill:url(#linear-gradient-2);}.cls-41{fill:url(#linear-gradient-3);}.cls-42{fill:url(#Degradado_sin_nombre_8);}.cls-43{fill:#fdc702;}.cls-44{fill:#f4f2ea;}.cls-45{fill:#ffcb8c;}.cls-46,.cls-47,.cls-58{fill:#ffad63;}.cls-46{opacity:0.35;}.cls-48{fill:#666665;}.cls-49{fill:#414240;}.cls-50{fill:#1e4985;opacity:0.6;}.cls-51{stroke:#fff;stroke-width:0.53px;}.cls-52{fill:#3a82e2;}.cls-53{fill:#006bff;}.cls-54{font-size:4px;font-family:ProductSans-Bold, Product Sans;font-weight:700;}.cls-55{letter-spacing:-0.09em;}.cls-56{letter-spacing:-0.01em;}.cls-57{letter-spacing:-0.02em;}.cls-58{opacity:0.5;}.cls-59{fill:#ffe1b3;}.cls-60{fill:#a9ecfe;}</style><clipPath id="clip-path"><polygon class="cls-1" points="58.58 163.04 138.89 163.04 152.27 181.35 45.76 181.35 58.58 163.04"/></clipPath><linearGradient id="Degradado_sin_nombre_11" x1="260.26" y1="92.98" x2="71.41" y2="243.35" gradientUnits="userSpaceOnUse"><stop offset="0" stop-color="#d1ebfb"/><stop offset="1" stop-color="#d1ebfb" stop-opacity="0"/></linearGradient><linearGradient id="Degradado_sin_nombre_11-2" x1="122.26" y1="96.01" x2="-7.05" y2="198.98" xlink:href="#Degradado_sin_nombre_11"/><linearGradient id="Degradado_sin_nombre_10" x1="231.65" y1="176.78" x2="260.74" y2="176.78" gradientUnits="userSpaceOnUse"><stop offset="0" stop-color="#4493cf" stop-opacity="0"/><stop offset="1" stop-color="#4493cf"/></linearGradient><linearGradient id="Degradado_sin_nombre_9" x1="199.51" y1="123.19" x2="205.21" y2="137.19" gradientTransform="translate(145.39 -104.99) rotate(45)" gradientUnits="userSpaceOnUse"><stop offset="0" stop-color="#0047a4"/><stop offset="1" stop-color="#0047a4" stop-opacity="0"/></linearGradient><linearGradient id="Degradado_sin_nombre_7" x1="189.98" y1="128.12" x2="204.86" y2="117.65" gradientUnits="userSpaceOnUse"><stop offset="0" stop-color="#b3cefe"/><stop offset="1" stop-color="#d9eefc"/></linearGradient><linearGradient id="linear-gradient" x1="374.62" y1="247.96" x2="374.62" y2="271.55" gradientTransform="translate(11.87 -293.28) rotate(31.2)" gradientUnits="userSpaceOnUse"><stop offset="0" stop-color="#fff"/><stop offset="1" stop-color="#fff" stop-opacity="0"/></linearGradient><linearGradient id="linear-gradient-2" x1="377.87" y1="245.22" x2="377.87" y2="268.91" xlink:href="#linear-gradient"/><linearGradient id="linear-gradient-3" x1="371.58" y1="246.86" x2="371.58" y2="270.46" xlink:href="#linear-gradient"/><linearGradient id="Degradado_sin_nombre_8" x1="198.82" y1="87.83" x2="215.26" y2="87.83" gradientUnits="userSpaceOnUse"><stop offset="0" stop-color="#4493cf"/><stop offset="1" stop-color="#4493cf" stop-opacity="0"/></linearGradient></defs><title>Illustration-HomeLoan</title><g class="cls-2"><g id="Layer_2" data-name="Layer 2"><g id="Layer_1-2" data-name="Layer 1"><path class="cls-3" d="M167.12,22.6c13.21-7.79,25.71-17.54,40.6-21.14a53.51,53.51,0,0,1,29.8,1.44c11.17,3.85,20.69,11.29,29.84,18.77,33.23,27.2,64.8,57.14,88.36,93S394.47,193.06,392.53,236c-1,22.82-7.12,45.89-20.51,64.4s-34.67,32-57.5,32.85C274.19,334.76,243,300,206.59,282.52c-6.59-3.16-14.25-5.8-21.09-3.19-11,4.24-13,18.54-18,29.25-5.48,11.74-16.78,20.13-29.3,23.27h0a48.62,48.62,0,0,1-22.27-2.05c-15-5.17-27.1-19.22-28.2-35.09-1.18-17,9.45-32.64,12-49.53.34-2.25.5-4.67-.57-6.67a7.83,7.83,0,0,0-3.74-3.25,28,28,0,0,0-4.46-1.54,152.63,152.63,0,0,1-73.59-46.8C7.51,175.59-.92,161.62.08,146.68s15.2-29.44,29.74-25.85c2.5.62,5,1.73,7.55,1.45,3.29-.36,5.87-2.92,8-5.47C64.3,94.06,67.88,62.68,78.46,35c1.58-4.15,3.48-8.43,7-11.11,10.85-8.24,25,3.76,38,7.89C138.09,36.46,153.93,30.38,167.12,22.6Z"/><g class="cls-4"><path class="cls-5" d="M155,226.83a5.8,5.8,0,0,0,4.47-5.22,2.57,2.57,0,0,0-.18-1.26,2.36,2.36,0,0,0-2.32-1.18,6.84,6.84,0,0,0-2.6.87c2-2.57,3.45-6,2.13-9a2.32,2.32,0,0,0-1.88-1.56c-.9,0-1.57.83-2.06,1.59a40.32,40.32,0,0,0-3.26,6.12c-.34-2.23-1-4.65-3-5.84a1.57,1.57,0,0,0-.93-.28,1.44,1.44,0,0,0-.81.46c-1.67,1.6-1.51,4.27-1.24,6.56a3,3,0,0,0-4-1.4,5.32,5.32,0,0,0-2.63,3.85,5.84,5.84,0,0,0,.37,3.78c.59,1.14,1.89,2.58,3.18,2.49"/><polygon class="cls-6" points="58.86 89.13 99.02 65.71 139.17 89.13 139.17 227.82 58.86 227.82 58.86 89.13"/><polygon class="cls-7" points="58.86 89.66 58.86 93.57 99.02 71.19 139.17 92.4 139.17 89.13 99.02 68.4 58.86 89.66"/><polygon class="cls-8" points="56.63 92.4 99.02 68.4 141.12 91.17 143.07 86.39 98.88 61.99 54.31 88.52 56.63 92.4"/><g class="cls-9"><polygon class="cls-8" points="58.58 163.04 138.89 163.04 152.27 181.35 45.76 181.35 58.58 163.04"/><path class="cls-8" d="M51.53,196.17S53,202,57.59,202.09s6.32-3.66,6.77-5.88l-5-2.68Z"/><path class="cls-10" d="M57.74,202.37h-.16c-4.75-.09-6.3-6.07-6.32-6.13L51.2,196l8.14-2.77,5.34,2.84-.05.21C64,199.23,61.9,202.37,57.74,202.37Zm-5.86-6c.34,1.09,1.92,5.39,5.71,5.46h.15c4.66,0,6-4.17,6.3-5.45l-4.75-2.53Z"/><path class="cls-8" d="M64.36,196.17s1.46,5.83,6,5.92,6.32-3.66,6.78-5.88l-5-2.68Z"/><path class="cls-10" d="M70.56,202.37h-.15c-4.75-.09-6.31-6.07-6.32-6.13L64,196l8.14-2.77,5.33,2.84,0,.21C76.86,199.23,74.73,202.37,70.56,202.37Zm-5.86-6c.34,1.09,1.92,5.39,5.72,5.46h.15c4.65,0,6-4.17,6.3-5.45l-4.75-2.53Z"/><path class="cls-8" d="M77.19,196.17s1.46,5.83,6,5.92,6.32-3.66,6.77-5.88l-5-2.68Z"/><path class="cls-10" d="M83.39,202.37h-.16c-4.74-.09-6.3-6.07-6.31-6.13l-.07-.25L85,193.22l5.34,2.84,0,.21C89.68,199.23,87.56,202.37,83.39,202.37Zm-5.86-6c.34,1.09,1.92,5.39,5.71,5.46h.15c4.66,0,6-4.17,6.3-5.45L85,193.83Z"/><path class="cls-8" d="M90,196.17s1.47,5.83,6.06,5.92,6.32-3.66,6.77-5.88l-5-2.68Z"/><path class="cls-10" d="M96.22,202.37h-.16c-4.75-.09-6.3-6.07-6.32-6.13l-.06-.25,8.14-2.77,5.33,2.84,0,.21C102.51,199.23,100.38,202.37,96.22,202.37Zm-5.87-6c.34,1.09,1.93,5.39,5.72,5.46h.15c4.66,0,6-4.17,6.3-5.45l-4.75-2.53Z"/><path class="cls-8" d="M102.84,196.17s1.46,5.83,6,5.92,6.32-3.66,6.77-5.88l-5-2.68Z"/><path class="cls-10" d="M109,202.37h-.15c-4.75-.09-6.31-6.07-6.32-6.13l-.06-.25,8.14-2.77,5.33,2.84,0,.21C115.34,199.23,113.21,202.37,109,202.37Zm-5.86-6c.34,1.09,1.92,5.39,5.72,5.46H109c4.66,0,6-4.17,6.31-5.45l-4.75-2.53Z"/><path class="cls-8" d="M115.66,196.17s1.47,5.83,6.06,5.92,6.32-3.66,6.77-5.88l-5-2.68Z"/><path class="cls-10" d="M121.87,202.37h-.16c-4.75-.09-6.3-6.07-6.32-6.13l-.06-.25,8.14-2.77,5.33,2.84,0,.21C128.16,199.23,126,202.37,121.87,202.37Zm-5.86-6c.34,1.09,1.92,5.39,5.71,5.46h.15c4.66,0,6-4.17,6.3-5.45l-4.75-2.53Z"/><path class="cls-8" d="M128.49,196.17s1.46,5.83,6,5.92,6.32-3.66,6.78-5.88l-5-2.68Z"/><path class="cls-10" d="M134.7,202.37h-.16c-4.75-.09-6.31-6.07-6.32-6.13l-.06-.25,8.14-2.77,5.33,2.84,0,.21C141,199.23,138.86,202.37,134.7,202.37Zm-5.87-6c.34,1.09,1.92,5.39,5.72,5.46,4.75.11,6.14-4.16,6.45-5.45l-4.75-2.53Z"/><path class="cls-8" d="M141.32,196.17s1.46,5.83,6.05,5.92,6.32-3.66,6.77-5.88l-5-2.68Z"/><path class="cls-10" d="M147.52,202.37h-.16c-4.74-.09-6.3-6.07-6.31-6.13L141,196l8.14-2.77,5.34,2.84,0,.21C153.81,199.23,151.69,202.37,147.52,202.37Zm-5.86-6c.34,1.09,1.92,5.39,5.72,5.46h.14c4.66,0,6-4.17,6.3-5.45l-4.74-2.53Z"/><path class="cls-8" d="M45.12,191.89s1.46,5.83,6.05,5.92,6.33-3.66,6.78-5.88l-5-2.68Z"/><path class="cls-10" d="M51.33,198.09h-.16c-4.75-.09-6.3-6.07-6.32-6.13l-.06-.25,8.14-2.77,5.33,2.84,0,.2C57.62,195,55.49,198.09,51.33,198.09Zm-5.87-6c.34,1.09,1.93,5.39,5.72,5.46h.15c4.66,0,6-4.17,6.3-5.45l-4.75-2.53Z"/><path class="cls-8" d="M58,191.89s1.46,5.83,6,5.92,6.32-3.66,6.77-5.88l-5-2.68Z"/><path class="cls-10" d="M64.15,198.09H64c-4.74-.09-6.3-6.07-6.31-6.13l-.07-.25,8.15-2.77,5.33,2.84,0,.2C70.44,195,68.32,198.09,64.15,198.09Zm-5.86-6c.34,1.09,1.92,5.39,5.72,5.46h.14c4.66,0,6-4.17,6.31-5.45l-4.75-2.53Z"/><path class="cls-8" d="M70.77,191.89s1.47,5.83,6.06,5.92,6.32-3.66,6.77-5.88l-5-2.68Z"/><path class="cls-10" d="M77,198.09h-.16C72.07,198,70.52,192,70.5,192l-.06-.25,8.14-2.77,5.33,2.84,0,.2C83.27,195,81.14,198.09,77,198.09Zm-5.86-6c.33,1.09,1.92,5.39,5.71,5.46H77c4.66,0,6-4.17,6.3-5.45l-4.75-2.53Z"/><path class="cls-8" d="M83.6,191.89s1.46,5.83,6.05,5.92,6.32-3.66,6.78-5.88l-5.05-2.68Z"/><path class="cls-10" d="M89.8,198.09h-.15C84.9,198,83.34,192,83.33,192l-.06-.25,8.14-2.77,5.33,2.84,0,.2C96.1,195,94,198.09,89.8,198.09Zm-5.86-6c.34,1.09,1.92,5.39,5.72,5.46h.14c4.66,0,6-4.17,6.31-5.45l-4.75-2.53Z"/><path class="cls-8" d="M96.43,191.89s1.46,5.83,6,5.92,6.32-3.66,6.77-5.88l-5-2.68Z"/><path class="cls-10" d="M102.63,198.09h-.16c-4.75-.09-6.3-6.07-6.32-6.13l-.06-.25,8.14-2.77,5.34,2.84,0,.2C108.92,195,106.79,198.09,102.63,198.09Zm-5.86-6c.34,1.09,1.92,5.39,5.71,5.46h.15c4.66,0,6-4.17,6.3-5.45l-4.75-2.53Z"/><path class="cls-8" d="M109.25,191.89s1.46,5.83,6,5.92,6.33-3.66,6.78-5.88l-5-2.68Z"/><path class="cls-10" d="M115.46,198.09h-.16C110.55,198,109,192,109,192l-.06-.25,8.14-2.77,5.33,2.84,0,.2C121.75,195,119.62,198.09,115.46,198.09Zm-5.87-6c.34,1.09,1.92,5.39,5.72,5.46h.15c4.66,0,6-4.17,6.3-5.45L117,189.55Z"/><path class="cls-8" d="M122.08,191.89s1.46,5.83,6,5.92,6.32-3.66,6.77-5.88l-5-2.68Z"/><path class="cls-10" d="M128.28,198.09h-.16c-4.74-.09-6.3-6.07-6.31-6.13l-.07-.25,8.15-2.77,5.33,2.84,0,.2C134.57,195,132.45,198.09,128.28,198.09Zm-5.86-6c.34,1.09,1.92,5.39,5.72,5.46h.14c4.66,0,6-4.17,6.31-5.45l-4.75-2.53Z"/><path class="cls-8" d="M134.9,191.89s1.47,5.83,6.06,5.92,6.32-3.66,6.77-5.88l-5-2.68Z"/><path class="cls-10" d="M141.11,198.09H141c-4.75-.09-6.3-6.07-6.32-6.13l-.06-.25,8.14-2.77,5.33,2.84,0,.2C147.4,195,145.27,198.09,141.11,198.09Zm-5.86-6c.33,1.09,1.92,5.39,5.71,5.46h.15c4.66,0,6-4.17,6.3-5.45l-4.75-2.53Z"/><path class="cls-8" d="M51.53,187.61s1.47,5.83,6.06,5.92,6.32-3.66,6.77-5.88l-5-2.68Z"/><path class="cls-10" d="M57.74,193.81h-.16c-4.75-.09-6.3-6.07-6.32-6.13l-.06-.25,8.14-2.77,5.34,2.84-.05.2C64,190.67,61.9,193.81,57.74,193.81Zm-5.86-6c.34,1.08,1.92,5.39,5.71,5.46h.15c4.66,0,6-4.17,6.3-5.46l-4.75-2.52Z"/><path class="cls-8" d="M64.36,187.61s1.46,5.83,6,5.92,6.32-3.66,6.78-5.88l-5-2.68Z"/><path class="cls-10" d="M70.56,193.81h-.15c-4.75-.09-6.31-6.07-6.32-6.13l-.06-.25,8.14-2.77,5.33,2.84,0,.2C76.86,190.67,74.73,193.81,70.56,193.81Zm-5.86-6c.34,1.08,1.92,5.39,5.72,5.46h.15c4.65,0,6-4.18,6.3-5.46l-4.75-2.52Z"/><path class="cls-8" d="M77.19,187.61s1.46,5.83,6,5.92,6.32-3.66,6.77-5.88L85,185Z"/><path class="cls-10" d="M83.39,193.81h-.16c-4.74-.09-6.3-6.07-6.31-6.13l-.07-.25L85,184.66l5.34,2.84,0,.2C89.68,190.67,87.56,193.81,83.39,193.81Zm-5.86-6c.34,1.08,1.92,5.39,5.71,5.46h.15c4.66,0,6-4.17,6.3-5.46L85,185.27Z"/><path class="cls-8" d="M90,187.61s1.47,5.83,6.06,5.92,6.32-3.66,6.77-5.88l-5-2.68Z"/><path class="cls-10" d="M96.22,193.81h-.16c-4.75-.09-6.3-6.07-6.32-6.13l-.06-.25,8.14-2.77,5.33,2.84,0,.2C102.51,190.67,100.38,193.81,96.22,193.81Zm-5.87-6c.34,1.08,1.93,5.39,5.72,5.46,4.78.12,6.15-4.16,6.45-5.46l-4.75-2.52Z"/><path class="cls-8" d="M102.84,187.61s1.46,5.83,6,5.92,6.32-3.66,6.77-5.88l-5-2.68Z"/><path class="cls-10" d="M109,193.81h-.15c-4.75-.09-6.31-6.07-6.32-6.13l-.06-.25,8.14-2.77L116,187.5l0,.2C115.34,190.67,113.21,193.81,109,193.81Zm-5.86-6c.34,1.08,1.92,5.39,5.72,5.46H109c4.66,0,6-4.17,6.31-5.46l-4.75-2.52Z"/><path class="cls-8" d="M115.66,187.61s1.47,5.83,6.06,5.92,6.32-3.66,6.77-5.88l-5-2.68Z"/><path class="cls-10" d="M121.87,193.81h-.16c-4.75-.09-6.3-6.07-6.32-6.13l-.06-.25,8.14-2.77,5.33,2.84,0,.2C128.16,190.67,126,193.81,121.87,193.81Zm-5.86-6c.34,1.08,1.92,5.39,5.71,5.46,4.78.12,6.15-4.16,6.45-5.46l-4.75-2.52Z"/><path class="cls-8" d="M128.49,187.61s1.46,5.83,6,5.92,6.32-3.66,6.78-5.88l-5-2.68Z"/><path class="cls-10" d="M134.7,193.81h-.16c-4.75-.09-6.31-6.07-6.32-6.13l-.06-.25,8.14-2.77,5.33,2.84,0,.2C141,190.67,138.86,193.81,134.7,193.81Zm-5.87-6c.34,1.08,1.92,5.39,5.72,5.46,4.75.1,6.14-4.16,6.45-5.46l-4.75-2.52Z"/><path class="cls-8" d="M141.32,187.61s1.46,5.83,6.05,5.92,6.32-3.66,6.77-5.88l-5-2.68Z"/><path class="cls-10" d="M147.52,193.81h-.16c-4.74-.09-6.3-6.07-6.31-6.13l-.07-.25,8.14-2.77,5.34,2.84,0,.2C153.81,190.67,151.69,193.81,147.52,193.81Zm-5.86-6c.34,1.08,1.92,5.39,5.72,5.46h.14c4.66,0,6-4.18,6.3-5.46l-4.74-2.52Z"/><path class="cls-8" d="M45.12,183.33s1.46,5.83,6.05,5.92,6.33-3.66,6.78-5.88l-5-2.69Z"/><path class="cls-10" d="M51.33,189.53h-.16c-4.75-.08-6.3-6.06-6.32-6.12l-.06-.25,8.14-2.77,5.33,2.84,0,.2C57.62,186.39,55.49,189.53,51.33,189.53Zm-5.87-6c.34,1.08,1.93,5.39,5.72,5.46,4.77.12,6.14-4.16,6.45-5.46L52.88,181Z"/><path class="cls-8" d="M58,183.33s1.46,5.83,6,5.92,6.32-3.66,6.77-5.88l-5-2.69Z"/><path class="cls-10" d="M64.15,189.53H64c-4.74-.08-6.3-6.06-6.31-6.12l-.07-.25,8.15-2.77,5.33,2.84,0,.2C70.44,186.39,68.32,189.53,64.15,189.53Zm-5.86-6c.34,1.08,1.92,5.39,5.72,5.46h.14c4.66,0,6-4.18,6.31-5.46L65.71,181Z"/><path class="cls-8" d="M70.77,183.33s1.47,5.83,6.06,5.92,6.32-3.66,6.77-5.88l-5-2.69Z"/><path class="cls-10" d="M77,189.53h-.16c-4.75-.08-6.3-6.06-6.32-6.12l-.06-.25,8.14-2.77,5.33,2.84,0,.2C83.27,186.39,81.14,189.53,77,189.53Zm-5.86-6c.33,1.08,1.92,5.39,5.71,5.46,4.77.12,6.15-4.16,6.45-5.46L78.53,181Z"/><path class="cls-8" d="M83.6,183.33s1.46,5.83,6.05,5.92,6.32-3.66,6.78-5.88l-5.05-2.69Z"/><path class="cls-10" d="M89.8,189.53h-.15c-4.75-.08-6.31-6.06-6.32-6.12l-.06-.25,8.14-2.77,5.33,2.84,0,.2C96.1,186.39,94,189.53,89.8,189.53Zm-5.86-6c.34,1.08,1.92,5.39,5.72,5.46h.14c4.66,0,6-4.18,6.31-5.46L91.36,181Z"/><path class="cls-8" d="M96.43,183.33s1.46,5.83,6,5.92,6.32-3.66,6.77-5.88l-5-2.69Z"/><path class="cls-10" d="M102.63,189.53h-.16c-4.75-.08-6.3-6.06-6.32-6.12l-.06-.25,8.14-2.77,5.34,2.84,0,.2C108.92,186.39,106.79,189.53,102.63,189.53Zm-5.86-6c.34,1.08,1.92,5.39,5.71,5.46h.15c4.66,0,6-4.18,6.3-5.46L104.18,181Z"/><path class="cls-8" d="M109.25,183.33s1.46,5.83,6,5.92,6.33-3.66,6.78-5.88l-5-2.69Z"/><path class="cls-10" d="M115.46,189.53h-.16c-4.75-.08-6.3-6.06-6.32-6.12l-.06-.25,8.14-2.77,5.33,2.84,0,.2C121.75,186.39,119.62,189.53,115.46,189.53Zm-5.87-6c.34,1.08,1.92,5.39,5.72,5.46,4.79.12,6.14-4.16,6.45-5.46L117,181Z"/><path class="cls-8" d="M122.08,183.33s1.46,5.83,6,5.92,6.32-3.66,6.77-5.88l-5-2.69Z"/><path class="cls-10" d="M128.28,189.53h-.16c-4.74-.08-6.3-6.06-6.31-6.12l-.07-.25,8.15-2.77,5.33,2.84,0,.2C134.57,186.39,132.45,189.53,128.28,189.53Zm-5.86-6c.34,1.08,1.92,5.39,5.72,5.46,4.76.12,6.14-4.16,6.45-5.46L129.84,181Z"/><path class="cls-8" d="M134.9,183.33s1.47,5.83,6.06,5.92,6.32-3.66,6.77-5.88l-5-2.69Z"/><path class="cls-10" d="M141.11,189.53H141c-4.75-.08-6.3-6.06-6.32-6.12l-.06-.25,8.14-2.77,5.33,2.84,0,.2C147.4,186.39,145.27,189.53,141.11,189.53Zm-5.86-6c.33,1.08,1.92,5.39,5.71,5.46h.15c4.66,0,6-4.18,6.3-5.46L142.66,181Z"/><path class="cls-8" d="M51.53,179.05S53,184.88,57.59,185s6.32-3.65,6.77-5.87l-5-2.69Z"/><path class="cls-10" d="M57.74,185.24h-.16c-4.75-.09-6.3-6.06-6.32-6.12l-.06-.25,8.14-2.77,5.34,2.84-.05.2C64,182.11,61.9,185.24,57.74,185.24Zm-5.86-6c.34,1.08,1.92,5.38,5.71,5.46,4.76.11,6.15-4.16,6.45-5.46l-4.75-2.52Z"/><path class="cls-8" d="M64.36,179.05s1.46,5.83,6,5.91,6.32-3.65,6.78-5.87l-5-2.69Z"/><path class="cls-10" d="M70.56,185.24h-.15c-4.75-.09-6.31-6.06-6.32-6.12l-.06-.25,8.14-2.77,5.33,2.84,0,.2C76.86,182.11,74.73,185.24,70.56,185.24Zm-5.86-6c.34,1.08,1.92,5.38,5.72,5.46h.15c4.65,0,6-4.18,6.3-5.46l-4.75-2.52Z"/><path class="cls-8" d="M77.19,179.05s1.46,5.83,6,5.91,6.32-3.65,6.77-5.87l-5-2.69Z"/><path class="cls-10" d="M83.39,185.24h-.16c-4.74-.09-6.3-6.06-6.31-6.12l-.07-.25L85,176.1l5.34,2.84,0,.2C89.68,182.11,87.56,185.24,83.39,185.24Zm-5.86-6c.34,1.08,1.92,5.38,5.71,5.46h.15c4.66,0,6-4.18,6.3-5.46L85,176.71Z"/><path class="cls-8" d="M90,179.05s1.47,5.83,6.06,5.91,6.32-3.65,6.77-5.87l-5-2.69Z"/><path class="cls-10" d="M96.22,185.24h-.16c-4.75-.09-6.3-6.06-6.32-6.12l-.06-.25,8.14-2.77,5.33,2.84,0,.2C102.51,182.11,100.38,185.24,96.22,185.24Zm-5.87-6c.34,1.08,1.93,5.38,5.72,5.46,4.78.11,6.15-4.16,6.45-5.46l-4.75-2.52Z"/><path class="cls-8" d="M102.84,179.05s1.46,5.83,6,5.91,6.32-3.65,6.77-5.87l-5-2.69Z"/><path class="cls-10" d="M109,185.24h-.15c-4.75-.09-6.31-6.06-6.32-6.12l-.06-.25,8.14-2.77,5.33,2.84,0,.2C115.34,182.11,113.21,185.24,109,185.24Zm-5.86-6c.34,1.08,1.92,5.38,5.72,5.46H109c4.66,0,6-4.18,6.31-5.46l-4.75-2.52Z"/><path class="cls-8" d="M115.66,179.05s1.47,5.83,6.06,5.91,6.32-3.65,6.77-5.87l-5-2.69Z"/><path class="cls-10" d="M121.87,185.24h-.16c-4.75-.09-6.3-6.06-6.32-6.12l-.06-.25,8.14-2.77,5.33,2.84,0,.2C128.16,182.11,126,185.24,121.87,185.24Zm-5.86-6c.34,1.08,1.92,5.38,5.71,5.46,4.78.11,6.15-4.16,6.45-5.46l-4.75-2.52Z"/><path class="cls-8" d="M128.49,179.05s1.46,5.83,6,5.91,6.32-3.65,6.78-5.87l-5-2.69Z"/><path class="cls-10" d="M134.7,185.24h-.16c-4.75-.09-6.31-6.06-6.32-6.12l-.06-.25,8.14-2.77,5.33,2.84,0,.2C141,182.11,138.86,185.24,134.7,185.24Zm-5.87-6c.34,1.08,1.92,5.38,5.72,5.46,4.75.09,6.14-4.16,6.45-5.46l-4.75-2.52Z"/><path class="cls-8" d="M141.32,179.05s1.46,5.83,6.05,5.91,6.32-3.65,6.77-5.87l-5-2.69Z"/><path class="cls-10" d="M147.52,185.24h-.16c-4.74-.09-6.3-6.06-6.31-6.12l-.07-.25,8.14-2.77,5.34,2.84,0,.2C153.81,182.11,151.69,185.24,147.52,185.24Zm-5.86-6c.34,1.08,1.92,5.38,5.72,5.46h.14c4.66,0,6-4.18,6.3-5.46l-4.74-2.52Z"/><path class="cls-8" d="M45.12,174.77s1.46,5.83,6.05,5.91S57.5,177,58,174.8l-5-2.68Z"/><path class="cls-10" d="M51.33,181h-.16c-4.75-.09-6.3-6.06-6.32-6.12l-.06-.25,8.14-2.77,5.33,2.84,0,.2C57.62,177.82,55.49,181,51.33,181Zm-5.87-6c.34,1.08,1.93,5.38,5.72,5.45,4.77.12,6.14-4.16,6.45-5.45l-4.75-2.53Z"/><path class="cls-8" d="M58,174.77s1.46,5.83,6,5.91,6.32-3.65,6.77-5.88l-5-2.68Z"/><path class="cls-10" d="M64.15,181H64c-4.74-.09-6.3-6.06-6.31-6.12l-.07-.25,8.15-2.77,5.33,2.84,0,.2C70.44,177.82,68.32,181,64.15,181Zm-5.86-6c.34,1.08,1.92,5.38,5.72,5.45h.14c4.66,0,6-4.18,6.31-5.46l-4.75-2.53Z"/><path class="cls-8" d="M70.77,174.77s1.47,5.83,6.06,5.91,6.32-3.65,6.77-5.88l-5-2.68Z"/><path class="cls-10" d="M77,181h-.16c-4.75-.09-6.3-6.06-6.32-6.12l-.06-.25,8.14-2.77,5.33,2.84,0,.2C83.27,177.82,81.14,181,77,181Zm-5.86-6c.33,1.08,1.92,5.38,5.71,5.45,4.77.12,6.15-4.16,6.45-5.45l-4.75-2.53Z"/><path class="cls-8" d="M83.6,174.77s1.46,5.83,6.05,5.91S96,177,96.43,174.8l-5.05-2.68Z"/><path class="cls-10" d="M89.8,181h-.15c-4.75-.09-6.31-6.06-6.32-6.12l-.06-.25,8.14-2.77,5.33,2.84,0,.2C96.1,177.82,94,181,89.8,181Zm-5.86-6c.34,1.08,1.92,5.38,5.72,5.45h.14c4.66,0,6-4.18,6.31-5.46l-4.75-2.53Z"/><path class="cls-8" d="M96.43,174.77s1.46,5.83,6,5.91,6.32-3.65,6.77-5.88l-5-2.68Z"/><path class="cls-10" d="M102.63,181h-.16c-4.75-.09-6.3-6.06-6.32-6.12l-.06-.25,8.14-2.77,5.34,2.84,0,.2C108.92,177.82,106.79,181,102.63,181Zm-5.86-6c.34,1.08,1.92,5.38,5.71,5.45h.15c4.66,0,6-4.18,6.3-5.46l-4.75-2.53Z"/><path class="cls-8" d="M109.25,174.77s1.46,5.83,6,5.91,6.33-3.65,6.78-5.88l-5-2.68Z"/><path class="cls-10" d="M115.46,181h-.16c-4.75-.09-6.3-6.06-6.32-6.12l-.06-.25,8.14-2.77,5.33,2.84,0,.2C121.75,177.82,119.62,181,115.46,181Zm-5.87-6c.34,1.08,1.93,5.38,5.72,5.45,4.79.12,6.14-4.16,6.45-5.45L117,172.42Z"/><path class="cls-8" d="M122.08,174.77s1.46,5.83,6,5.91,6.32-3.65,6.77-5.88l-5-2.68Z"/><path class="cls-10" d="M128.28,181h-.16c-4.74-.09-6.3-6.06-6.31-6.12l-.07-.25,8.15-2.77,5.33,2.84,0,.2C134.57,177.82,132.45,181,128.28,181Zm-5.86-6c.34,1.08,1.92,5.38,5.72,5.45,4.76.12,6.14-4.16,6.45-5.45l-4.75-2.53Z"/><path class="cls-8" d="M134.9,174.77s1.47,5.83,6.06,5.91,6.32-3.65,6.77-5.88l-5-2.68Z"/><path class="cls-10" d="M141.11,181H141c-4.75-.09-6.3-6.06-6.32-6.12l-.06-.25,8.14-2.77,5.33,2.84,0,.2C147.4,177.82,145.27,181,141.11,181Zm-5.86-6c.33,1.08,1.92,5.38,5.71,5.45,4.75.11,6.15-4.16,6.45-5.45l-4.75-2.53Z"/><path class="cls-8" d="M51.53,170.49s1.47,5.83,6.06,5.91,6.32-3.65,6.77-5.88l-5-2.68Z"/><path class="cls-10" d="M57.74,176.68h-.16c-4.75-.09-6.3-6.07-6.32-6.13l-.06-.25,8.14-2.76,5.34,2.83-.05.21C64,173.54,61.9,176.68,57.74,176.68Zm-5.86-6c.34,1.09,1.92,5.39,5.71,5.46h.15c4.66,0,6-4.17,6.3-5.45l-4.75-2.53Z"/><path class="cls-8" d="M64.36,170.49s1.46,5.83,6,5.91,6.32-3.65,6.78-5.88l-5-2.68Z"/><path class="cls-10" d="M70.57,176.68h-.16c-4.75-.09-6.31-6.07-6.32-6.13L64,170.3l8.14-2.76,5.33,2.84,0,.2C76.86,173.54,74.73,176.68,70.57,176.68Zm-5.87-6c.34,1.09,1.92,5.39,5.72,5.46h.15c4.65,0,6-4.17,6.3-5.45l-4.75-2.53Z"/><path class="cls-8" d="M77.19,170.49s1.46,5.83,6,5.91,6.32-3.65,6.77-5.88l-5-2.68Z"/><path class="cls-10" d="M83.39,176.68h-.16c-4.74-.09-6.3-6.07-6.31-6.13l-.07-.25L85,167.54l5.34,2.83,0,.21C89.68,173.54,87.56,176.68,83.39,176.68Zm-5.86-6c.34,1.09,1.92,5.39,5.71,5.46h.15c4.66,0,6-4.17,6.3-5.45L85,168.14Z"/><path class="cls-8" d="M90,170.49s1.47,5.83,6.06,5.91,6.32-3.65,6.77-5.88l-5-2.68Z"/><path class="cls-10" d="M96.22,176.68h-.16c-4.75-.09-6.3-6.07-6.32-6.13l-.06-.25,8.14-2.76,5.33,2.83,0,.21C102.51,173.54,100.38,176.68,96.22,176.68Zm-5.87-6c.34,1.09,1.93,5.39,5.72,5.46h.15c4.66,0,6-4.17,6.3-5.45l-4.75-2.53Z"/><path class="cls-8" d="M102.84,170.49s1.46,5.83,6,5.91,6.32-3.65,6.77-5.88l-5-2.68Z"/><path class="cls-10" d="M109,176.68h-.15c-4.75-.09-6.31-6.07-6.32-6.13l-.06-.25,8.14-2.76,5.33,2.83,0,.21C115.33,173.54,113.21,176.68,109,176.68Zm-5.86-6c.34,1.09,1.92,5.39,5.72,5.46H109c4.66,0,6-4.17,6.31-5.45l-4.75-2.53Z"/><path class="cls-8" d="M115.66,170.49s1.47,5.83,6.06,5.91,6.32-3.65,6.77-5.88l-5-2.68Z"/><path class="cls-10" d="M121.87,176.68h-.16c-4.75-.09-6.3-6.07-6.32-6.13l-.06-.25,8.14-2.76,5.33,2.83,0,.21C128.16,173.54,126,176.68,121.87,176.68Zm-5.86-6c.34,1.09,1.92,5.39,5.71,5.46h.15c4.66,0,6-4.17,6.3-5.45l-4.75-2.53Z"/><path class="cls-8" d="M128.49,170.49s1.46,5.83,6,5.91,6.32-3.65,6.78-5.88l-5-2.68Z"/><path class="cls-10" d="M134.7,176.68h-.16c-4.75-.09-6.31-6.07-6.32-6.13l-.06-.25,8.14-2.76,5.33,2.83,0,.21C141,173.54,138.86,176.68,134.7,176.68Zm-5.87-6c.34,1.09,1.92,5.39,5.72,5.46h.15c4.66,0,6-4.17,6.3-5.45l-4.75-2.53Z"/><path class="cls-8" d="M141.32,170.49s1.46,5.83,6.05,5.91,6.32-3.65,6.77-5.88l-5-2.68Z"/><path class="cls-10" d="M147.52,176.68h-.16c-4.74-.09-6.3-6.07-6.31-6.13l-.07-.25,8.14-2.76,5.34,2.83,0,.21C153.81,173.54,151.69,176.68,147.52,176.68Zm-5.86-6c.34,1.09,1.92,5.39,5.72,5.46h.14c4.66,0,6-4.17,6.3-5.45l-4.74-2.53Z"/><path class="cls-8" d="M45.12,166.21s1.46,5.82,6.05,5.91,6.33-3.66,6.78-5.88l-5-2.68Z"/><path class="cls-10" d="M51.33,172.4h-.16c-4.75-.09-6.3-6.07-6.32-6.13l-.06-.25,8.14-2.76,5.33,2.83,0,.21C57.62,169.26,55.49,172.4,51.33,172.4Zm-5.87-6c.34,1.09,1.93,5.39,5.72,5.46h.15c4.66,0,6-4.17,6.3-5.45l-4.75-2.53Z"/><path class="cls-8" d="M58,166.21s1.46,5.82,6,5.91,6.32-3.66,6.77-5.88l-5-2.68Z"/><path class="cls-10" d="M64.15,172.4H64c-4.74-.09-6.3-6.07-6.31-6.13l-.07-.25,8.15-2.76,5.33,2.83,0,.21C70.44,169.26,68.32,172.4,64.15,172.4Zm-5.86-6c.34,1.09,1.92,5.39,5.72,5.46h.14c4.66,0,6-4.17,6.31-5.45l-4.75-2.53Z"/><path class="cls-8" d="M70.77,166.21s1.47,5.82,6.06,5.91,6.32-3.66,6.77-5.88l-5-2.68Z"/><path class="cls-10" d="M77,172.4h-.16c-4.75-.09-6.3-6.07-6.32-6.13l-.06-.25,8.14-2.76,5.33,2.83,0,.21C83.27,169.26,81.14,172.4,77,172.4Zm-5.86-6c.33,1.09,1.92,5.39,5.71,5.46H77c4.66,0,6-4.17,6.3-5.45l-4.75-2.53Z"/><path class="cls-8" d="M83.6,166.21s1.46,5.82,6.05,5.91,6.32-3.66,6.78-5.88l-5.05-2.68Z"/><path class="cls-10" d="M89.8,172.4h-.15c-4.75-.09-6.31-6.07-6.32-6.13l-.06-.25,8.14-2.76,5.33,2.83,0,.21C96.1,169.26,94,172.4,89.8,172.4Zm-5.86-6c.34,1.09,1.92,5.39,5.72,5.46h.15c4.65,0,6-4.17,6.3-5.45l-4.75-2.53Z"/><path class="cls-8" d="M96.43,166.21s1.46,5.82,6,5.91,6.32-3.66,6.77-5.88l-5-2.68Z"/><path class="cls-10" d="M102.63,172.4h-.16c-4.75-.09-6.3-6.07-6.32-6.13l-.06-.25,8.14-2.76,5.34,2.83,0,.21C108.92,169.26,106.79,172.4,102.63,172.4Zm-5.86-6c.34,1.09,1.92,5.39,5.71,5.46h.15c4.66,0,6-4.17,6.3-5.45l-4.75-2.53Z"/><path class="cls-8" d="M109.25,166.21s1.46,5.82,6,5.91,6.33-3.66,6.78-5.88l-5-2.68Z"/><path class="cls-10" d="M115.46,172.4h-.16c-4.75-.09-6.3-6.07-6.32-6.13l-.06-.25,8.14-2.76,5.33,2.83,0,.21C121.75,169.26,119.62,172.4,115.46,172.4Zm-5.87-6c.34,1.09,1.93,5.39,5.72,5.46h.15c4.66,0,6-4.17,6.3-5.45L117,163.86Z"/><path class="cls-8" d="M122.08,166.21s1.46,5.82,6,5.91,6.32-3.66,6.77-5.88l-5-2.68Z"/><path class="cls-10" d="M128.28,172.4h-.16c-4.74-.09-6.3-6.07-6.31-6.13l-.07-.25,8.15-2.76,5.33,2.83,0,.21C134.57,169.26,132.45,172.4,128.28,172.4Zm-5.86-6c.34,1.09,1.92,5.39,5.72,5.46h.14c4.66,0,6-4.17,6.31-5.45l-4.75-2.53Z"/><path class="cls-8" d="M134.9,166.21s1.47,5.82,6.06,5.91,6.32-3.66,6.77-5.88l-5-2.68Z"/><path class="cls-10" d="M141.11,172.4H141c-4.75-.09-6.3-6.07-6.32-6.13l-.06-.25,8.14-2.76,5.33,2.83,0,.21C147.4,169.26,145.27,172.4,141.11,172.4Zm-5.86-6c.33,1.09,1.92,5.39,5.71,5.46h.15c4.66,0,6-4.17,6.3-5.45l-4.75-2.53Z"/><path class="cls-8" d="M51.53,161.92s1.47,5.83,6.06,5.92,6.32-3.66,6.77-5.88l-5-2.68Z"/><path class="cls-10" d="M57.74,168.12h-.16c-4.75-.09-6.3-6.07-6.32-6.13l-.06-.25L59.34,159l5.34,2.83-.05.21C64,165,61.9,168.12,57.74,168.12Zm-5.86-6c.34,1.09,1.92,5.39,5.71,5.46,4.76.11,6.15-4.16,6.45-5.45l-4.75-2.53Z"/><path class="cls-8" d="M64.36,161.92s1.46,5.83,6,5.92,6.32-3.66,6.78-5.88l-5-2.68Z"/><path class="cls-10" d="M70.56,168.12h-.15c-4.75-.09-6.31-6.07-6.32-6.13l-.06-.25L72.17,159l5.33,2.83,0,.21C76.86,165,74.73,168.12,70.56,168.12Zm-5.86-6c.34,1.09,1.92,5.39,5.72,5.46h.15c4.65,0,6-4.17,6.3-5.45l-4.75-2.53Z"/><path class="cls-8" d="M77.19,161.92s1.46,5.83,6,5.92S89.56,164.18,90,162l-5-2.68Z"/><path class="cls-10" d="M83.39,168.12h-.16c-4.74-.09-6.3-6.07-6.31-6.13l-.07-.25L85,159l5.34,2.83,0,.21C89.68,165,87.56,168.12,83.39,168.12Zm-5.86-6c.34,1.09,1.92,5.39,5.71,5.46,4.76.11,6.15-4.16,6.45-5.45L85,159.58Z"/><path class="cls-8" d="M90,161.92s1.47,5.83,6.06,5.92,6.32-3.66,6.77-5.88l-5-2.68Z"/><path class="cls-10" d="M96.22,168.12h-.16c-4.75-.09-6.3-6.07-6.32-6.13l-.06-.25L97.82,159l5.33,2.83,0,.21C102.51,165,100.38,168.12,96.22,168.12Zm-5.87-6c.34,1.09,1.93,5.39,5.72,5.46,4.78.11,6.15-4.16,6.45-5.45l-4.75-2.53Z"/><path class="cls-8" d="M102.84,161.92s1.46,5.83,6,5.92,6.32-3.66,6.77-5.88l-5-2.68Z"/><path class="cls-10" d="M109,168.12h-.15c-4.75-.09-6.31-6.07-6.32-6.13l-.06-.25,8.14-2.76,5.33,2.83,0,.21C115.34,165,113.21,168.12,109,168.12Zm-5.86-6c.34,1.09,1.92,5.39,5.72,5.46,4.75.11,6.14-4.16,6.45-5.45l-4.75-2.53Z"/><path class="cls-8" d="M115.66,161.92s1.47,5.83,6.06,5.92,6.32-3.66,6.77-5.88l-5-2.68Z"/><path class="cls-10" d="M121.87,168.12h-.16c-4.75-.09-6.3-6.07-6.32-6.13l-.06-.25,8.14-2.76,5.33,2.83,0,.21C128.16,165,126,168.12,121.87,168.12Zm-5.86-6c.34,1.09,1.92,5.39,5.71,5.46,4.78.11,6.15-4.16,6.45-5.45l-4.75-2.53Z"/><path class="cls-8" d="M128.49,161.92s1.46,5.83,6,5.92,6.32-3.66,6.78-5.88l-5-2.68Z"/><path class="cls-10" d="M134.7,168.12h-.16c-4.75-.09-6.31-6.07-6.32-6.13l-.06-.25L136.3,159l5.33,2.83,0,.21C141,165,138.86,168.12,134.7,168.12Zm-5.87-6c.34,1.09,1.92,5.39,5.72,5.46h.15c4.66,0,6-4.17,6.3-5.45l-4.75-2.53Z"/><path class="cls-8" d="M141.32,161.92s1.46,5.83,6.05,5.92,6.32-3.66,6.77-5.88l-5-2.68Z"/><path class="cls-10" d="M147.52,168.12h-.16c-4.74-.09-6.3-6.07-6.31-6.13l-.07-.25,8.14-2.76,5.34,2.83,0,.21C153.81,165,151.69,168.12,147.52,168.12Zm-5.86-6c.34,1.09,1.92,5.39,5.72,5.46h.14c4.66,0,6-4.17,6.3-5.45l-4.74-2.53Z"/><path class="cls-8" d="M45.12,157.64s1.46,5.83,6.05,5.92,6.33-3.66,6.78-5.88l-5-2.68Z"/><path class="cls-10" d="M51.33,163.84h-.16c-4.75-.09-6.3-6.07-6.32-6.13l-.06-.25,8.14-2.77,5.33,2.84,0,.21C57.62,160.7,55.49,163.84,51.33,163.84Zm-5.87-6c.34,1.09,1.93,5.39,5.72,5.46,4.77.11,6.14-4.16,6.45-5.45l-4.75-2.53Z"/><path class="cls-8" d="M58,157.64s1.46,5.83,6,5.92,6.32-3.66,6.77-5.88l-5-2.68Z"/><path class="cls-10" d="M64.15,163.84H64c-4.74-.09-6.3-6.07-6.31-6.13l-.07-.25,8.15-2.77,5.33,2.84,0,.21C70.44,160.7,68.32,163.84,64.15,163.84Zm-5.86-6c.34,1.09,1.92,5.39,5.72,5.46,4.74.11,6.14-4.16,6.45-5.45l-4.75-2.53Z"/><path class="cls-8" d="M70.77,157.64s1.47,5.83,6.06,5.92,6.32-3.66,6.77-5.88l-5-2.68Z"/><path class="cls-10" d="M77,163.84h-.16c-4.75-.09-6.3-6.07-6.32-6.13l-.06-.25,8.14-2.77,5.33,2.84,0,.21C83.27,160.7,81.14,163.84,77,163.84Zm-5.86-6c.33,1.09,1.92,5.39,5.71,5.46,4.77.11,6.15-4.16,6.45-5.45l-4.75-2.53Z"/><path class="cls-8" d="M83.6,157.64s1.46,5.83,6.05,5.92,6.32-3.66,6.78-5.88L91.38,155Z"/><path class="cls-10" d="M89.8,163.84h-.15c-4.75-.09-6.31-6.07-6.32-6.13l-.06-.25,8.14-2.77,5.33,2.84,0,.21C96.1,160.7,94,163.84,89.8,163.84Zm-5.86-6c.34,1.09,1.92,5.39,5.72,5.46h.14c4.66,0,6-4.17,6.31-5.45l-4.75-2.53Z"/><path class="cls-8" d="M96.43,157.64s1.46,5.83,6,5.92,6.32-3.66,6.77-5.88l-5-2.68Z"/><path class="cls-10" d="M102.63,163.84h-.16c-4.75-.09-6.3-6.07-6.32-6.13l-.06-.25,8.14-2.77,5.34,2.84,0,.21C108.92,160.7,106.79,163.84,102.63,163.84Zm-5.86-6c.34,1.09,1.92,5.39,5.71,5.46,4.78.12,6.15-4.16,6.45-5.45l-4.75-2.53Z"/><path class="cls-8" d="M109.25,157.64s1.46,5.83,6,5.92,6.33-3.66,6.78-5.88L117,155Z"/><path class="cls-10" d="M115.46,163.84h-.16c-4.75-.09-6.3-6.07-6.32-6.13l-.06-.25,8.14-2.77,5.33,2.84,0,.21C121.75,160.7,119.62,163.84,115.46,163.84Zm-5.87-6c.34,1.09,1.92,5.39,5.72,5.46,4.79.11,6.14-4.16,6.45-5.45L117,155.3Z"/><path class="cls-8" d="M122.08,157.64s1.46,5.83,6,5.92,6.32-3.66,6.77-5.88l-5-2.68Z"/><path class="cls-10" d="M128.28,163.84h-.16c-4.74-.09-6.3-6.07-6.31-6.13l-.07-.25,8.15-2.77,5.33,2.84,0,.21C134.57,160.7,132.45,163.84,128.28,163.84Zm-5.86-6c.34,1.09,1.92,5.39,5.72,5.46,4.76.11,6.14-4.16,6.45-5.45l-4.75-2.53Z"/><path class="cls-8" d="M134.9,157.64s1.47,5.83,6.06,5.92,6.32-3.66,6.77-5.88l-5-2.68Z"/><path class="cls-10" d="M141.11,163.84H141c-4.75-.09-6.3-6.07-6.32-6.13l-.06-.25,8.14-2.77,5.33,2.84,0,.21C147.4,160.7,145.27,163.84,141.11,163.84Zm-5.86-6c.33,1.09,1.92,5.39,5.71,5.46h.15c4.66,0,6-4.17,6.3-5.45l-4.75-2.53Z"/><path class="cls-8" d="M51.53,153.36s1.47,5.83,6.06,5.92,6.32-3.66,6.77-5.88l-5-2.68Z"/><path class="cls-10" d="M57.74,159.56h-.16c-4.75-.09-6.3-6.07-6.32-6.13l-.06-.25,8.14-2.77,5.34,2.84-.05.2C64,156.42,61.9,159.56,57.74,159.56Zm-5.86-6c.34,1.08,1.92,5.39,5.71,5.46,4.76.1,6.15-4.16,6.45-5.45L59.29,151Z"/><path class="cls-8" d="M64.36,153.36s1.46,5.83,6,5.92,6.32-3.66,6.78-5.88l-5-2.68Z"/><path class="cls-10" d="M70.56,159.56h-.15c-4.75-.09-6.31-6.07-6.32-6.13l-.06-.25,8.14-2.77,5.33,2.84,0,.2C76.86,156.42,74.73,159.56,70.56,159.56Zm-5.86-6c.34,1.08,1.92,5.39,5.72,5.46h.15c4.65,0,6-4.17,6.3-5.45L72.12,151Z"/><path class="cls-8" d="M77.19,153.36s1.46,5.83,6,5.92,6.32-3.66,6.77-5.88l-5-2.68Z"/><path class="cls-10" d="M83.39,159.56h-.16c-4.74-.09-6.3-6.07-6.31-6.13l-.07-.25L85,150.41l5.34,2.84,0,.2C89.68,156.42,87.56,159.56,83.39,159.56Zm-5.86-6c.34,1.08,1.92,5.39,5.71,5.46,4.76.1,6.15-4.16,6.45-5.45L85,151Z"/><path class="cls-8" d="M90,153.36s1.47,5.83,6.06,5.92,6.32-3.66,6.77-5.88l-5-2.68Z"/><path class="cls-10" d="M96.22,159.56h-.16c-4.75-.09-6.3-6.07-6.32-6.13l-.06-.25,8.14-2.77,5.33,2.84,0,.2C102.51,156.42,100.38,159.56,96.22,159.56Zm-5.87-6c.34,1.08,1.93,5.39,5.72,5.46,4.78.1,6.15-4.16,6.45-5.45L97.77,151Z"/><path class="cls-8" d="M102.84,153.36s1.46,5.83,6,5.92,6.32-3.66,6.77-5.88l-5-2.68Z"/><path class="cls-10" d="M109,159.56h-.15c-4.75-.09-6.31-6.07-6.32-6.13l-.06-.25,8.14-2.77,5.33,2.84,0,.2C115.34,156.42,113.21,159.56,109,159.56Zm-5.86-6c.34,1.08,1.92,5.39,5.72,5.46,4.75.1,6.14-4.16,6.45-5.45L110.6,151Z"/><path class="cls-8" d="M115.66,153.36s1.47,5.83,6.06,5.92,6.32-3.66,6.77-5.88l-5-2.68Z"/><path class="cls-10" d="M121.87,159.56h-.16c-4.75-.09-6.3-6.07-6.32-6.13l-.06-.25,8.14-2.77,5.33,2.84,0,.2C128.16,156.42,126,159.56,121.87,159.56Zm-5.86-6c.34,1.08,1.92,5.39,5.71,5.46,4.78.1,6.15-4.16,6.45-5.45L123.42,151Z"/><path class="cls-8" d="M128.49,153.36s1.46,5.83,6,5.92,6.32-3.66,6.78-5.88l-5-2.68Z"/><path class="cls-10" d="M134.7,159.56h-.16c-4.75-.09-6.31-6.07-6.32-6.13l-.06-.25,8.14-2.77,5.33,2.84,0,.2C141,156.42,138.86,159.56,134.7,159.56Zm-5.87-6c.34,1.08,1.92,5.39,5.72,5.46h.15c4.66,0,6-4.17,6.3-5.45L136.25,151Z"/><path class="cls-8" d="M141.32,153.36s1.46,5.83,6.05,5.92,6.32-3.66,6.77-5.88l-5-2.68Z"/><path class="cls-10" d="M147.52,159.56h-.16c-4.74-.09-6.3-6.07-6.31-6.13l-.07-.25,8.14-2.77,5.34,2.84,0,.2C153.81,156.42,151.69,159.56,147.52,159.56Zm-5.86-6c.34,1.08,1.92,5.39,5.72,5.46h.14c4.66,0,6-4.17,6.3-5.45L149.08,151Z"/><path class="cls-8" d="M45.12,149.08s1.46,5.83,6.05,5.92,6.33-3.66,6.78-5.88l-5-2.69Z"/><path class="cls-10" d="M51.33,155.28h-.16c-4.75-.08-6.3-6.06-6.32-6.12l-.06-.25,8.14-2.77L58.26,149l0,.2C57.62,152.14,55.49,155.28,51.33,155.28Zm-5.87-6c.34,1.08,1.93,5.39,5.72,5.46,4.77.1,6.14-4.16,6.45-5.46l-4.75-2.52Z"/><path class="cls-8" d="M58,149.08s1.46,5.83,6,5.92,6.32-3.66,6.77-5.88l-5-2.69Z"/><path class="cls-10" d="M64.15,155.28H64c-4.74-.08-6.3-6.06-6.31-6.12l-.07-.25,8.15-2.77L71.09,149l0,.2C70.44,152.14,68.32,155.28,64.15,155.28Zm-5.86-6c.34,1.08,1.92,5.39,5.72,5.46,4.74.1,6.14-4.16,6.45-5.46l-4.75-2.52Z"/><path class="cls-8" d="M70.77,149.08s1.47,5.83,6.06,5.92,6.32-3.66,6.77-5.88l-5-2.69Z"/><path class="cls-10" d="M77,155.28h-.16c-4.75-.08-6.3-6.06-6.32-6.12l-.06-.25,8.14-2.77L83.91,149l0,.2C83.27,152.14,81.14,155.28,77,155.28Zm-5.86-6c.33,1.08,1.92,5.39,5.71,5.46,4.77.1,6.15-4.16,6.45-5.46l-4.75-2.52Z"/><path class="cls-8" d="M83.6,149.08s1.46,5.83,6.05,5.92,6.32-3.66,6.78-5.88l-5.05-2.69Z"/><path class="cls-10" d="M89.8,155.28h-.15c-4.75-.08-6.31-6.06-6.32-6.12l-.06-.25,8.14-2.77L96.74,149l0,.2C96.1,152.14,94,155.28,89.8,155.28Zm-5.86-6c.34,1.08,1.92,5.39,5.72,5.46h.14c4.66,0,6-4.18,6.31-5.46l-4.75-2.52Z"/><path class="cls-8" d="M96.43,149.08s1.46,5.83,6,5.92,6.32-3.66,6.77-5.88l-5-2.69Z"/><path class="cls-10" d="M102.63,155.28h-.16c-4.75-.08-6.3-6.06-6.32-6.12l-.06-.25,8.14-2.77,5.34,2.84,0,.2C108.92,152.14,106.79,155.28,102.63,155.28Zm-5.86-6c.34,1.08,1.92,5.39,5.71,5.46,4.78.11,6.15-4.16,6.45-5.46l-4.75-2.52Z"/><path class="cls-8" d="M109.25,149.08s1.46,5.83,6,5.92,6.33-3.66,6.78-5.88l-5-2.69Z"/><path class="cls-10" d="M115.46,155.28h-.16c-4.75-.08-6.3-6.06-6.32-6.12l-.06-.25,8.14-2.77,5.33,2.84,0,.2C121.75,152.14,119.62,155.28,115.46,155.28Zm-5.87-6c.34,1.08,1.92,5.39,5.72,5.46,4.79.1,6.14-4.16,6.45-5.46L117,146.74Z"/><path class="cls-8" d="M122.08,149.08s1.46,5.83,6,5.92,6.32-3.66,6.77-5.88l-5-2.69Z"/><path class="cls-10" d="M128.28,155.28h-.16c-4.74-.08-6.3-6.06-6.31-6.12l-.07-.25,8.15-2.77,5.33,2.84,0,.2C134.57,152.14,132.45,155.28,128.28,155.28Zm-5.86-6c.34,1.08,1.92,5.39,5.72,5.46,4.76.1,6.14-4.16,6.45-5.46l-4.75-2.52Z"/><path class="cls-8" d="M134.9,149.08s1.47,5.83,6.06,5.92,6.32-3.66,6.77-5.88l-5-2.69Z"/><path class="cls-10" d="M141.11,155.28H141c-4.75-.08-6.3-6.06-6.32-6.12l-.06-.25,8.14-2.77L148,149l0,.2C147.4,152.14,145.27,155.28,141.11,155.28Zm-5.86-6c.33,1.08,1.92,5.39,5.71,5.46h.15c4.66,0,6-4.18,6.3-5.46l-4.75-2.52Z"/><path class="cls-8" d="M51.53,144.8s1.47,5.83,6.06,5.91,6.32-3.65,6.77-5.87l-5-2.69Z"/><path class="cls-10" d="M57.74,151h-.16c-4.75-.09-6.3-6.06-6.32-6.12l-.06-.25,8.14-2.77,5.34,2.84-.05.2C64,147.86,61.9,151,57.74,151Zm-5.86-6c.34,1.08,1.92,5.38,5.71,5.46,4.76.1,6.15-4.16,6.45-5.46l-4.75-2.52Z"/><path class="cls-8" d="M64.36,144.8s1.46,5.83,6,5.91,6.32-3.65,6.78-5.87l-5-2.69Z"/><path class="cls-10" d="M70.56,151h-.15c-4.75-.09-6.31-6.06-6.32-6.12l-.06-.25,8.14-2.77,5.33,2.84,0,.2C76.86,147.86,74.73,151,70.56,151Zm-5.86-6c.34,1.08,1.92,5.38,5.72,5.46h.15c4.65,0,6-4.18,6.3-5.46l-4.75-2.52Z"/><path class="cls-8" d="M77.19,144.8s1.46,5.83,6,5.91,6.32-3.65,6.77-5.87l-5-2.69Z"/><path class="cls-10" d="M83.39,151h-.16c-4.74-.09-6.3-6.06-6.31-6.12l-.07-.25L85,141.85l5.34,2.84,0,.2C89.68,147.86,87.56,151,83.39,151Zm-5.86-6c.34,1.08,1.92,5.38,5.71,5.46,4.76.1,6.15-4.16,6.45-5.46L85,142.46Z"/><path class="cls-8" d="M90,144.8s1.47,5.83,6.06,5.91,6.32-3.65,6.77-5.87l-5-2.69Z"/><path class="cls-10" d="M96.22,151h-.16c-4.75-.09-6.3-6.06-6.32-6.12l-.06-.25,8.14-2.77,5.33,2.84,0,.2C102.51,147.86,100.38,151,96.22,151Zm-5.87-6c.34,1.08,1.93,5.38,5.72,5.46,4.78.1,6.15-4.16,6.45-5.46l-4.75-2.52Z"/><path class="cls-8" d="M102.84,144.8s1.46,5.83,6,5.91,6.32-3.65,6.77-5.87l-5-2.69Z"/><path class="cls-10" d="M109,151h-.15c-4.75-.09-6.31-6.06-6.32-6.12l-.06-.25,8.14-2.77,5.33,2.84,0,.2C115.34,147.86,113.21,151,109,151Zm-5.86-6c.34,1.08,1.92,5.38,5.72,5.46,4.75.1,6.14-4.16,6.45-5.46l-4.75-2.52Z"/><path class="cls-8" d="M115.66,144.8s1.47,5.83,6.06,5.91,6.32-3.65,6.77-5.87l-5-2.69Z"/><path class="cls-10" d="M121.87,151h-.16c-4.75-.09-6.3-6.06-6.32-6.12l-.06-.25,8.14-2.77,5.33,2.84,0,.2C128.16,147.86,126,151,121.87,151ZM116,145c.34,1.08,1.92,5.38,5.71,5.46,4.78.1,6.15-4.16,6.45-5.46l-4.75-2.52Z"/><path class="cls-8" d="M128.49,144.8s1.46,5.83,6,5.91,6.32-3.65,6.78-5.87l-5-2.69Z"/><path class="cls-10" d="M134.7,151h-.16c-4.75-.09-6.31-6.06-6.32-6.12l-.06-.25,8.14-2.77,5.33,2.84,0,.2C141,147.86,138.86,151,134.7,151Zm-5.87-6c.34,1.08,1.92,5.38,5.72,5.46h.15c4.66,0,6-4.18,6.3-5.46l-4.75-2.52Z"/><path class="cls-8" d="M141.32,144.8s1.46,5.83,6.05,5.91,6.32-3.65,6.77-5.87l-5-2.69Z"/><path class="cls-10" d="M147.52,151h-.16c-4.74-.09-6.3-6.06-6.31-6.12l-.07-.25,8.14-2.77,5.34,2.84,0,.2C153.81,147.86,151.69,151,147.52,151Zm-5.86-6c.34,1.08,1.92,5.38,5.72,5.46h.14c4.66,0,6-4.18,6.3-5.46l-4.74-2.52Z"/><path class="cls-8" d="M45.12,140.52s1.46,5.83,6.05,5.91,6.33-3.65,6.78-5.88l-5-2.68Z"/><path class="cls-10" d="M51.33,146.71h-.16c-4.75-.09-6.3-6.06-6.32-6.12l-.06-.25,8.14-2.77,5.33,2.84,0,.2C57.62,143.58,55.49,146.71,51.33,146.71Zm-5.87-6c.34,1.08,1.93,5.38,5.72,5.45,4.77.1,6.14-4.15,6.45-5.45l-4.75-2.52Z"/><path class="cls-8" d="M58,140.52s1.46,5.83,6,5.91,6.32-3.65,6.77-5.88l-5-2.68Z"/><path class="cls-10" d="M64.15,146.71H64c-4.74-.09-6.3-6.06-6.31-6.12l-.07-.25,8.15-2.77,5.33,2.84,0,.2C70.44,143.58,68.32,146.71,64.15,146.71Zm-5.86-6c.34,1.08,1.92,5.38,5.72,5.45,4.74.1,6.14-4.15,6.45-5.45l-4.75-2.52Z"/><path class="cls-8" d="M70.77,140.52s1.47,5.83,6.06,5.91,6.32-3.65,6.77-5.88l-5-2.68Z"/><path class="cls-10" d="M77,146.71h-.16c-4.75-.09-6.3-6.06-6.32-6.12l-.06-.25,8.14-2.77,5.33,2.84,0,.2C83.27,143.58,81.14,146.71,77,146.71Zm-5.86-6c.33,1.08,1.92,5.38,5.71,5.45,4.77.1,6.15-4.15,6.45-5.45l-4.75-2.52Z"/><path class="cls-8" d="M83.6,140.52s1.46,5.83,6.05,5.91,6.32-3.65,6.78-5.88l-5.05-2.68Z"/><path class="cls-10" d="M89.8,146.71h-.15c-4.75-.09-6.31-6.06-6.32-6.12l-.06-.25,8.14-2.77,5.33,2.84,0,.2C96.1,143.58,94,146.71,89.8,146.71Zm-5.86-6c.34,1.08,1.92,5.38,5.72,5.45,4.74.1,6.14-4.15,6.45-5.45l-4.75-2.52Z"/><path class="cls-8" d="M96.43,140.52s1.46,5.83,6,5.91,6.32-3.65,6.77-5.88l-5-2.68Z"/><path class="cls-10" d="M102.63,146.71h-.16c-4.75-.09-6.3-6.06-6.32-6.12l-.06-.25,8.14-2.77,5.34,2.84,0,.2C108.92,143.58,106.79,146.71,102.63,146.71Zm-5.86-6c.34,1.08,1.92,5.38,5.71,5.45,4.78.12,6.15-4.16,6.45-5.45l-4.75-2.52Z"/><path class="cls-8" d="M109.25,140.52s1.46,5.83,6,5.91,6.33-3.65,6.78-5.88l-5-2.68Z"/><path class="cls-10" d="M115.46,146.71h-.16c-4.75-.09-6.3-6.06-6.32-6.12l-.06-.25,8.14-2.77,5.33,2.84,0,.2C121.75,143.58,119.62,146.71,115.46,146.71Zm-5.87-6c.34,1.08,1.93,5.38,5.72,5.45,4.79.1,6.14-4.15,6.45-5.45L117,138.18Z"/><path class="cls-8" d="M122.08,140.52s1.46,5.83,6,5.91,6.32-3.65,6.77-5.88l-5-2.68Z"/><path class="cls-10" d="M128.28,146.71h-.16c-4.74-.09-6.3-6.06-6.31-6.12l-.07-.25,8.15-2.77,5.33,2.84,0,.2C134.57,143.58,132.45,146.71,128.28,146.71Zm-5.86-6c.34,1.08,1.92,5.38,5.72,5.45,4.76.1,6.14-4.15,6.45-5.45l-4.75-2.52Z"/><path class="cls-8" d="M134.9,140.52s1.47,5.83,6.06,5.91,6.32-3.65,6.77-5.88l-5-2.68Z"/><path class="cls-10" d="M141.11,146.71H141c-4.75-.09-6.3-6.06-6.32-6.12l-.06-.25,8.14-2.77,5.33,2.84,0,.2C147.4,143.58,145.27,146.71,141.11,146.71Zm-5.86-6c.33,1.08,1.92,5.38,5.71,5.45,4.75.11,6.15-4.15,6.45-5.45l-4.75-2.52Z"/><path class="cls-8" d="M51.53,136.24s1.47,5.83,6.06,5.91,6.32-3.65,6.77-5.88l-5-2.68Z"/><path class="cls-10" d="M57.74,142.43h-.16c-4.75-.09-6.3-6.07-6.32-6.13l-.06-.24,8.14-2.77,5.34,2.84-.05.2C64,139.29,61.9,142.43,57.74,142.43Zm-5.86-6c.34,1.09,1.92,5.39,5.71,5.46,4.77.11,6.15-4.16,6.45-5.45l-4.75-2.53Z"/><path class="cls-8" d="M64.36,136.24s1.46,5.83,6,5.91,6.32-3.65,6.78-5.88l-5-2.68Z"/><path class="cls-10" d="M70.57,142.43h-.16c-4.75-.09-6.31-6.07-6.32-6.13l-.06-.24,8.14-2.77,5.33,2.84,0,.2C76.86,139.29,74.73,142.43,70.57,142.43Zm-5.87-6c.34,1.09,1.92,5.39,5.72,5.46h.15c4.65,0,6-4.17,6.3-5.45l-4.75-2.53Z"/><path class="cls-8" d="M77.19,136.24s1.46,5.83,6,5.91,6.32-3.65,6.77-5.88l-5-2.68Z"/><path class="cls-10" d="M83.39,142.43h-.16c-4.74-.09-6.3-6.07-6.31-6.13l-.07-.24L85,133.29l5.34,2.84,0,.2C89.68,139.29,87.56,142.43,83.39,142.43Zm-5.86-6c.34,1.09,1.92,5.39,5.71,5.46,4.77.11,6.15-4.16,6.45-5.45L85,133.89Z"/><path class="cls-8" d="M90,136.24s1.47,5.83,6.06,5.91,6.32-3.65,6.77-5.88l-5-2.68Z"/><path class="cls-10" d="M96.22,142.43h-.16c-4.75-.09-6.3-6.07-6.32-6.13l-.06-.24,8.14-2.77,5.33,2.84,0,.2C102.51,139.29,100.38,142.43,96.22,142.43Zm-5.87-6c.34,1.09,1.93,5.39,5.72,5.46,4.79.11,6.15-4.16,6.45-5.45l-4.75-2.53Z"/><path class="cls-8" d="M102.84,136.24s1.46,5.83,6,5.91,6.32-3.65,6.77-5.88l-5-2.68Z"/><path class="cls-10" d="M109,142.43h-.15c-4.75-.09-6.31-6.07-6.32-6.13l-.06-.24,8.14-2.77,5.33,2.84,0,.2C115.33,139.29,113.21,142.43,109,142.43Zm-5.86-6c.34,1.09,1.92,5.39,5.72,5.46,4.75.11,6.14-4.16,6.45-5.45l-4.75-2.53Z"/><path class="cls-8" d="M115.66,136.24s1.47,5.83,6.06,5.91,6.32-3.65,6.77-5.88l-5-2.68Z"/><path class="cls-10" d="M121.87,142.43h-.16c-4.75-.09-6.3-6.07-6.32-6.13l-.06-.24,8.14-2.77,5.33,2.84,0,.2C128.16,139.29,126,142.43,121.87,142.43Zm-5.86-6c.34,1.09,1.92,5.39,5.71,5.46,4.78.11,6.15-4.16,6.45-5.45l-4.75-2.53Z"/><path class="cls-8" d="M128.49,136.24s1.46,5.83,6,5.91,6.32-3.65,6.78-5.88l-5-2.68Z"/><path class="cls-10" d="M134.7,142.43h-.16c-4.75-.09-6.31-6.07-6.32-6.13l-.06-.24,8.14-2.77,5.33,2.84,0,.2C141,139.29,138.86,142.43,134.7,142.43Zm-5.87-6c.34,1.09,1.92,5.39,5.72,5.46h.15c4.66,0,6-4.17,6.3-5.45l-4.75-2.53Z"/><path class="cls-8" d="M141.32,136.24s1.46,5.83,6.05,5.91,6.32-3.65,6.77-5.88l-5-2.68Z"/><path class="cls-10" d="M147.52,142.43h-.16c-4.74-.09-6.3-6.07-6.31-6.13l-.07-.24,8.14-2.77,5.34,2.84,0,.2C153.81,139.29,151.69,142.43,147.52,142.43Zm-5.86-6c.34,1.09,1.92,5.39,5.72,5.46h.14c4.66,0,6-4.17,6.3-5.45l-4.74-2.53Z"/><path class="cls-8" d="M45.12,133.15s1.46,5.83,6.05,5.92,6.33-3.66,6.78-5.88l-5-2.68Z"/><path class="cls-10" d="M51.33,139.35h-.16c-4.75-.09-6.3-6.07-6.32-6.13l-.06-.25,8.14-2.76L58.26,133l0,.21C57.62,136.21,55.49,139.35,51.33,139.35Zm-5.87-6c.34,1.09,1.93,5.39,5.72,5.46,4.77.11,6.14-4.16,6.45-5.45l-4.75-2.53Z"/><path class="cls-8" d="M58,133.15s1.46,5.83,6,5.92,6.32-3.66,6.77-5.88l-5-2.68Z"/><path class="cls-10" d="M64.15,139.35H64c-4.74-.09-6.3-6.07-6.31-6.13l-.07-.25,8.15-2.76L71.09,133l0,.21C70.44,136.21,68.32,139.35,64.15,139.35Zm-5.86-6c.34,1.09,1.92,5.39,5.72,5.46h.14c4.66,0,6-4.17,6.31-5.45l-4.75-2.53Z"/><path class="cls-8" d="M70.77,133.15s1.47,5.83,6.06,5.92,6.32-3.66,6.77-5.88l-5-2.68Z"/><path class="cls-10" d="M77,139.35h-.16c-4.75-.09-6.3-6.07-6.32-6.13l-.06-.25,8.14-2.76L83.91,133l0,.21C83.27,136.21,81.14,139.35,77,139.35Zm-5.86-6c.33,1.09,1.92,5.39,5.71,5.46,4.77.11,6.15-4.16,6.45-5.45l-4.75-2.53Z"/><path class="cls-8" d="M83.6,133.15s1.46,5.83,6.05,5.92,6.32-3.66,6.78-5.88l-5.05-2.68Z"/><path class="cls-10" d="M89.8,139.35h-.15c-4.75-.09-6.31-6.07-6.32-6.13l-.06-.25,8.14-2.76L96.74,133l0,.21C96.1,136.21,94,139.35,89.8,139.35Zm-5.86-6c.34,1.09,1.92,5.39,5.72,5.46h.14c4.66,0,6-4.17,6.31-5.45l-4.75-2.53Z"/><path class="cls-8" d="M96.43,133.15s1.46,5.83,6,5.92,6.32-3.66,6.77-5.88l-5-2.68Z"/><path class="cls-10" d="M102.63,139.35h-.16c-4.75-.09-6.3-6.07-6.32-6.13l-.06-.25,8.14-2.76,5.34,2.83,0,.21C108.92,136.21,106.79,139.35,102.63,139.35Zm-5.86-6c.34,1.09,1.92,5.39,5.71,5.46h.15c4.66,0,6-4.17,6.3-5.45l-4.75-2.53Z"/><path class="cls-8" d="M109.25,133.15s1.46,5.83,6,5.92,6.33-3.66,6.78-5.88l-5-2.68Z"/><path class="cls-10" d="M115.46,139.35h-.16c-4.75-.09-6.3-6.07-6.32-6.13l-.06-.25,8.14-2.76,5.33,2.83,0,.21C121.75,136.21,119.62,139.35,115.46,139.35Zm-5.87-6c.34,1.09,1.93,5.39,5.72,5.46,4.79.11,6.14-4.16,6.45-5.45L117,130.81Z"/><path class="cls-8" d="M122.08,133.15s1.46,5.83,6,5.92,6.32-3.66,6.77-5.88l-5-2.68Z"/><path class="cls-10" d="M128.28,139.35h-.16c-4.74-.09-6.3-6.07-6.31-6.13l-.07-.25,8.15-2.76,5.33,2.83,0,.21C134.57,136.21,132.45,139.35,128.28,139.35Zm-5.86-6c.34,1.09,1.92,5.39,5.72,5.46,4.76.11,6.14-4.16,6.45-5.45l-4.75-2.53Z"/><path class="cls-8" d="M134.9,133.15s1.47,5.83,6.06,5.92,6.32-3.66,6.77-5.88l-5-2.68Z"/><path class="cls-10" d="M141.11,139.35H141c-4.75-.09-6.3-6.07-6.32-6.13l-.06-.25,8.14-2.76L148,133l0,.21C147.4,136.21,145.27,139.35,141.11,139.35Zm-5.86-6c.33,1.09,1.92,5.39,5.71,5.46,4.75.1,6.15-4.16,6.45-5.45l-4.75-2.53Z"/></g><rect class="cls-11" x="45.76" y="181.35" width="106.52" height="3.29"/><rect class="cls-12" x="49.43" y="222.66" width="99.18" height="5.16"/><rect class="cls-12" x="53.46" y="184.64" width="2.9" height="37.32"/><rect class="cls-12" x="50.96" y="184.64" width="7.9" height="2.2" rx="0.37"/><rect class="cls-12" x="50.96" y="220.41" width="7.9" height="2.2" rx="0.37"/><rect class="cls-12" x="70.66" y="184.64" width="2.9" height="37.32"/><rect class="cls-12" x="68.16" y="184.64" width="7.9" height="2.2" rx="0.37"/><rect class="cls-12" x="68.16" y="220.41" width="7.9" height="2.2" rx="0.37"/><rect class="cls-12" x="56.36" y="205.03" width="15.19" height="2.09"/><rect class="cls-12" x="59.61" y="206.69" width="2.15" height="17.24"/><rect class="cls-12" x="65.26" y="206.69" width="2.15" height="17.24"/><rect class="cls-12" x="126.01" y="184.64" width="2.9" height="37.32"/><rect class="cls-12" x="123.51" y="184.64" width="7.9" height="2.2" rx="0.37"/><rect class="cls-12" x="123.51" y="220.41" width="7.9" height="2.2" rx="0.37"/><rect class="cls-12" x="143.2" y="184.64" width="2.9" height="37.32"/><rect class="cls-12" x="140.7" y="184.64" width="7.9" height="2.2" rx="0.37"/><rect class="cls-12" x="140.7" y="220.41" width="7.9" height="2.2" rx="0.37"/><rect class="cls-12" x="128.91" y="205.03" width="15.19" height="2.09"/><rect class="cls-12" x="132.15" y="206.69" width="2.15" height="17.24"/><rect class="cls-12" x="137.8" y="206.69" width="2.15" height="17.24"/><rect class="cls-13" x="87.43" y="189.56" width="23.17" height="33.06"/><rect class="cls-14" x="89.24" y="192.18" width="19.25" height="28.23"/><rect class="cls-15" x="60.42" y="106.45" width="9.67" height="5.07"/><rect class="cls-15" x="65.26" y="113.82" width="9.67" height="5.07"/><rect class="cls-15" x="128.4" y="149.09" width="9.67" height="5.07"/><rect class="cls-15" x="110.6" y="116.91" width="9.67" height="5.07"/><circle class="cls-16" cx="98.69" cy="90.78" r="7.28"/><path class="cls-17" d="M98.69,99.12A8.34,8.34,0,1,1,107,90.78,8.35,8.35,0,0,1,98.69,99.12Zm0-14.64a6.3,6.3,0,1,0,6.3,6.3A6.31,6.31,0,0,0,98.69,84.48Z"/><rect class="cls-17" x="97.75" y="83.84" width="1.88" height="13.88"/><rect class="cls-17" x="97.75" y="83.84" width="1.88" height="13.88" transform="translate(189.47 -7.91) rotate(90)"/><path class="cls-18" d="M96.05,199.5a.09.09,0,0,1-.07,0,.09.09,0,0,1,0-.13l2.3-2.24a.1.1,0,0,1,.14.14l-2.3,2.24Z"/><path class="cls-18" d="M100,200.3a.09.09,0,0,1-.07,0,.1.1,0,0,1,0-.14l2.3-2.23a.1.1,0,0,1,.14,0,.09.09,0,0,1,0,.13l-2.3,2.24Z"/><path class="cls-18" d="M98.7,218.58a.09.09,0,0,1-.07,0,.1.1,0,0,1,0-.14l2.3-2.23a.1.1,0,0,1,.14,0,.09.09,0,0,1,0,.13l-2.3,2.24A.11.11,0,0,1,98.7,218.58Z"/><path class="cls-18" d="M95.06,202.83l-.07,0a.1.1,0,0,1,0-.14l7.91-7.85a.12.12,0,0,1,.14,0,.1.1,0,0,1,0,.14l-7.91,7.85A.1.1,0,0,1,95.06,202.83Z"/><path class="cls-5" d="M46.69,228.84A4.73,4.73,0,0,1,43,224.57a2.13,2.13,0,0,1,.15-1,1.93,1.93,0,0,1,1.89-1,5.71,5.71,0,0,1,2.13.71c-1.61-2.09-2.82-4.92-1.75-7.33A1.9,1.9,0,0,1,47,214.69c.74,0,1.28.67,1.69,1.29a32.81,32.81,0,0,1,2.66,5c.28-1.82.85-3.8,2.42-4.77a1.24,1.24,0,0,1,.76-.23,1.22,1.22,0,0,1,.66.37c1.36,1.32,1.23,3.49,1,5.37a2.42,2.42,0,0,1,3.29-1.15,4.34,4.34,0,0,1,2.15,3.14,4.74,4.74,0,0,1-.3,3.09c-.48.94-1.54,2.11-2.6,2"/><path class="cls-13" d="M149.6,183.14q-.09,22.2-1.27,44.39a5.25,5.25,0,0,0,3.57-1,151.15,151.15,0,0,1,.87-49.45"/><path class="cls-13" d="M149.55,183.12c-1.22,6.89-.31,14.26-.61,21.25-.33,7.72-.76,15.44-1.2,23.16a.6.6,0,0,0,.59.59,7.55,7.55,0,0,0,3.88-1.09.6.6,0,0,0,.31-.53,198.93,198.93,0,0,1-1.21-24.76q.1-5.73.62-11.45c.41-4.37,1.64-8.87,1.36-13.24,0-.46-.74-.77-1-.26-2.73,6.16-2.63,14.49-2.93,21.13a124,124,0,0,0,1,23.11c.11.78,1.72,5.76-1.38,4.57-.27-.11.22-5,.25-5.79q.27-6.75.31-13.51c.06-7.56,1.31-15.7.07-23.18a0,0,0,0,0-.09,0Z"/><path class="cls-13" d="M150.4,197.49a24.05,24.05,0,0,0,6.64-10.7,1.11,1.11,0,0,1,.41-.7.76.76,0,0,1,1,.48,2.05,2.05,0,0,1-.08,1.27,26.64,26.64,0,0,1-7.33,12"/><path class="cls-13" d="M144.24,183.13a15.2,15.2,0,0,0,5.81,13.07c.65.52,1.58-.39.93-.93a16.65,16.65,0,0,1-5.9-12.14.42.42,0,0,0-.84,0Z"/><path class="cls-19" d="M171,175c2.72-6.48-3-15.27-9.82-11.35a11.64,11.64,0,0,0-.71-1,14.71,14.71,0,0,0-3.24-3.35,12.39,12.39,0,0,0-6-2.44,10.21,10.21,0,0,0-9.4,4.29,4.87,4.87,0,0,0-6.55,2.79,5.71,5.71,0,0,0-.37,3.13,5.49,5.49,0,0,0,.46,9.11,7.18,7.18,0,0,0,9.71,10,7.9,7.9,0,0,0,7.23,6.2,7.17,7.17,0,0,0,6.07-2.48,17.66,17.66,0,0,0,1.53-2.87c.11.1.23.19.37.3C167.9,192.8,177.64,180.73,171,175Z"/></g><path class="cls-20" d="M146.79,241.41H49.29S52.29,220,66,217c0,0-6-33.81,8.5-34.06s21.75,26.14,21.75,26.14,11.25-2,16.5,15.22C112.79,224.27,127.94,215.67,146.79,241.41Z"/><line class="cls-21" x1="75.08" y1="195.83" x2="83.76" y2="241.41"/><line class="cls-21" x1="87.78" y1="191.05" x2="81.03" y2="227.05"/><line class="cls-21" x1="60.65" y1="219.39" x2="82.79" y2="236.35"/><line class="cls-21" x1="103.99" y1="210.98" x2="102.5" y2="241.41"/><line class="cls-21" x1="129.57" y1="225.51" x2="125.75" y2="241.41"/><line class="cls-22" x1="152.75" y1="241.41" x2="40.75" y2="241.41"/><path class="cls-23" d="M114.58,185.66s-4.5-7.83-7.66-6.5.83,9.17.83,9.17-3.89,4.37-2,5.2,7.42-2.48,7.42-2.48,1.63,5.28,2.63,4.78,1.17-6,1.17-6,7.16-4,5.66-6.92S114.58,185.66,114.58,185.66Z"/><path class="cls-24" d="M47,205.88s2.25-3.92,3.84-3.25-.42,4.58-.42,4.58,1.94,2.19,1,2.61-3.72-1.25-3.72-1.25-.81,2.64-1.31,2.39-.58-3-.58-3-3.59-2-2.84-3.45S47,205.88,47,205.88Z"/><path class="cls-25" d="M322,214.7c-1.17-11.5-5.5-16.33-5.5-16.33s.33-11.17-3.5-16c0,0-1-23.67-11.33-30.17-10.34,6.5-11.34,30.17-11.34,30.17-3.83,4.83-3.5,16-3.5,16s-4.33,4.83-5.5,16.33,11.84,11.67,20.34,11.67S323.13,226.2,322,214.7Z"/><line class="cls-26" x1="301.63" y1="171.37" x2="301.63" y2="240.04"/><line class="cls-22" x1="294.46" y1="240.04" x2="309.46" y2="240.04"/><line class="cls-26" x1="304.54" y1="175.45" x2="301.63" y2="182.7"/><line class="cls-26" x1="295.79" y1="183.33" x2="301.63" y2="198.33"/><line class="cls-26" x1="313.17" y1="201.2" x2="301.63" y2="217.2"/><line class="cls-27" x1="290.54" y1="201.83" x2="290.54" y2="205.33"/><line class="cls-27" x1="295.17" y1="207.45" x2="295.17" y2="210.95"/><line class="cls-27" x1="295.79" y1="172.95" x2="295.79" y2="176.45"/><line class="cls-27" x1="288.42" y1="217.2" x2="288.42" y2="220.7"/><line class="cls-27" x1="310.04" y1="192.95" x2="310.04" y2="196.45"/><line class="cls-27" x1="304.54" y1="201.2" x2="304.54" y2="204.7"/><line class="cls-27" x1="306.54" y1="182.7" x2="306.54" y2="186.2"/><line class="cls-27" x1="309.46" y1="217.2" x2="309.46" y2="220.7"/><line class="cls-27" x1="303.08" y1="159.45" x2="303.08" y2="162.95"/><line class="cls-27" x1="312.29" y1="213.7" x2="312.29" y2="217.2"/><path class="cls-25" d="M351.79,214.45a36.2,36.2,0,0,0-4-11.5s5.38-6.5-7.37-20.25C327.67,196.45,333,203,333,203a36.2,36.2,0,0,0-4,11.5c-1.25,7,5.38,9.88,11.38,9.88S353,221.45,351.79,214.45Z"/><line class="cls-26" x1="340.42" y1="192.95" x2="340.42" y2="240.04"/><line class="cls-22" x1="332.92" y1="240.04" x2="347.92" y2="240.04"/><line class="cls-27" x1="337.88" y1="190.45" x2="337.88" y2="193.95"/><line class="cls-27" x1="343.54" y1="198.33" x2="343.54" y2="201.83"/><line class="cls-27" x1="344.71" y1="211.58" x2="344.71" y2="215.08"/><line class="cls-27" x1="337.21" y1="206.58" x2="337.21" y2="210.08"/><line class="cls-27" x1="337.21" y1="216.49" x2="337.21" y2="219.99"/><line class="cls-27" x1="333.71" y1="210.95" x2="333.71" y2="214.45"/><path class="cls-28" d="M183.8,94.4H142.27s2.76-4.77,9.38-3.08c1.08-7.23,9.38-6.61,10.15-1.23,1.45-5.59,9.25-5.49,9.54.16a2.07,2.07,0,0,1,3.84,1.53C181.8,90.09,183.8,94.4,183.8,94.4Z"/><path class="cls-28" d="M108.12,126.12c1.57-2.49,9.46-6.82,15.39-2.63,4.12-9.23,15.56-6.9,18.5-.91,1.81-1.65,7.16-2.4,7.33,3.54Z"/><path class="cls-28" d="M227.8,109.9c1.33-3.87,9.16-5.71,12.1-2,2-8.64,14.1-7.37,15.44-1,7.6-5.2,11.94,3,11.94,3Z"/><path class="cls-29" d="M246.72,88.48c1.32-3.86,9.16-5.7,12.09-2,2-8.65,14.1-7.37,15.44-1,7.61-5.19,11.94,3,11.94,3Z"/><path class="cls-30" d="M113,92.94c.91-2.65,6.27-3.91,8.28-1.34,1.34-5.92,9.66-5,10.57-.69,5.21-3.56,8.18,2,8.18,2Z"/><path class="cls-31" d="M249.05,238.52c0-1.74.89-5,2.29-6a5.67,5.67,0,0,1-.45-2.21A6.63,6.63,0,0,1,257,224a4.11,4.11,0,0,1,8.15.17,3.27,3.27,0,0,1-.39,1.55,2.34,2.34,0,0,1,1.67,1.77h0a3.88,3.88,0,0,1,4.07,3.66,3.35,3.35,0,0,1-.57,1.87,3.11,3.11,0,0,1,1.1,2.34,3.35,3.35,0,0,1-2.86,3.18Z"/><polygon class="cls-24" points="259.53 238.52 136.88 238.52 136.88 138.55 199 87.43 259.53 138.55 259.53 238.52"/><polygon class="cls-32" points="259.53 146.93 259.53 138.55 199 87.43 136.88 138.55 136.88 154.63 202.76 99.32 259.53 146.93"/><rect class="cls-32" x="136.88" y="178.42" width="122.67" height="4.92"/><rect class="cls-33" x="120.94" y="111.71" width="90.04" height="4.81" transform="translate(-34.53 133.38) rotate(-40)"/><rect class="cls-33" x="186.83" y="111.71" width="90.04" height="4.81" transform="translate(336.11 350.57) rotate(-140)"/><rect class="cls-34" x="113.06" y="108.72" width="99.14" height="5.3" transform="translate(-33.54 130.59) rotate(-40)"/><rect class="cls-34" x="185.61" y="108.72" width="99.14" height="5.3" transform="translate(343.76 347.85) rotate(-140)"/><rect class="cls-34" x="134.67" y="174.38" width="126.72" height="4.92"/><rect class="cls-35" x="231.65" y="174.69" width="29.09" height="4.19"/><circle class="cls-36" cx="199.44" cy="123.01" r="10.86" transform="translate(-28.57 177.05) rotate(-45)"/><circle class="cls-34" cx="198.53" cy="122.1" r="10.86"/><circle class="cls-33" cx="198.53" cy="122.1" r="9.92"/><circle class="cls-37" cx="198.53" cy="122.1" r="9.29"/><g class="cls-38"><path class="cls-39" d="M201.39,113.26,192,128.71a9.48,9.48,0,0,0,3.25,2.08l9.45-15.61A9.17,9.17,0,0,0,201.39,113.26Z"/><path class="cls-40" d="M205.12,115.52,195.77,131a9.61,9.61,0,0,0,1.71.36l8.75-14.46A9.52,9.52,0,0,0,205.12,115.52Z"/><path class="cls-41" d="M199.69,112.89l-8.77,14.49a10.11,10.11,0,0,0,.71.88l9.18-15.16A9.66,9.66,0,0,0,199.69,112.89Z"/></g><rect class="cls-34" x="197.81" y="111.55" width="1.24" height="21.04"/><rect class="cls-34" x="187.91" y="121.45" width="21.04" height="1.24"/><rect class="cls-33" x="186.94" y="235.55" width="26.69" height="2.97"/><polygon class="cls-42" points="198.82 77.96 198.82 83.82 215.26 97.69 215.26 91.55 198.82 77.96"/><polygon class="cls-33" points="211.14 188.44 211.14 235.51 210.09 235.51 210.09 189.49 211.14 188.44"/><polygon class="cls-33" points="189.01 188.44 189.01 235.51 190.05 235.51 190.05 189.49 189.01 188.44"/><polygon class="cls-33" points="211.14 188.44 189.01 188.44 190.05 189.49 210.09 189.49 211.14 188.44"/><rect class="cls-34" x="190.06" y="189.5" width="20.03" height="46.01"/><rect class="cls-33" x="193.04" y="191.99" width="4.87" height="22.15"/><rect class="cls-33" x="192.07" y="217.35" width="16.06" height="15.6"/><rect class="cls-34" x="192.92" y="218.43" width="14.22" height="13.82"/><rect class="cls-33" x="201.74" y="191.99" width="4.87" height="22.15"/><rect class="cls-34" x="193.69" y="192.91" width="3.56" height="20.3"/><rect class="cls-34" x="202.4" y="192.91" width="3.56" height="20.3"/><path class="cls-43" d="M209.39,215.15a.87.87,0,1,1-.87-.86A.87.87,0,0,1,209.39,215.15Z"/><rect class="cls-34" x="217.63" y="191.05" width="35.47" height="38.31"/><rect class="cls-33" x="219.67" y="192.69" width="31.39" height="35.04"/><rect class="cls-44" x="220.73" y="193.33" width="29.26" height="33.75"/><rect class="cls-34" x="220.73" y="200.27" width="29.26" height="5.04"/><rect class="cls-33" x="220.43" y="201.37" width="29.87" height="3.14"/><rect class="cls-34" x="219.12" y="202.12" width="31.99" height="1.55"/><rect class="cls-34" x="145.26" y="191.05" width="35.47" height="38.31"/><rect class="cls-33" x="147.3" y="192.69" width="31.39" height="35.04"/><rect class="cls-44" x="148.36" y="193.33" width="29.26" height="33.75"/><rect class="cls-34" x="148.36" y="200.27" width="29.26" height="5.04"/><rect class="cls-33" x="148.06" y="201.37" width="29.87" height="3.14"/><rect class="cls-34" x="146.75" y="202.12" width="31.99" height="1.55"/><rect class="cls-34" x="157.02" y="140.15" width="17.23" height="27.92"/><rect class="cls-33" x="158.01" y="141.34" width="15.25" height="25.54"/><rect class="cls-44" x="158.53" y="141.81" width="14.21" height="24.6"/><rect class="cls-34" x="158.53" y="146.87" width="14.21" height="3.67"/><rect class="cls-33" x="158.38" y="147.67" width="14.51" height="2.29"/><rect class="cls-34" x="157.74" y="148.22" width="15.54" height="1.13"/><rect class="cls-34" x="190.91" y="140.15" width="17.23" height="27.92"/><rect class="cls-33" x="191.9" y="141.34" width="15.25" height="25.54"/><rect class="cls-44" x="192.42" y="141.81" width="14.21" height="24.6"/><rect class="cls-34" x="192.42" y="146.87" width="14.21" height="3.67"/><rect class="cls-33" x="192.27" y="147.67" width="14.51" height="2.29"/><rect class="cls-34" x="191.63" y="148.22" width="15.54" height="1.13"/><rect class="cls-34" x="224.8" y="140.15" width="17.23" height="27.92"/><rect class="cls-33" x="225.79" y="141.34" width="15.25" height="25.54"/><rect class="cls-44" x="226.31" y="141.81" width="14.21" height="24.6"/><rect class="cls-34" x="226.31" y="146.87" width="14.21" height="3.67"/><rect class="cls-33" x="226.16" y="147.67" width="14.51" height="2.29"/><rect class="cls-34" x="225.52" y="148.22" width="15.54" height="1.13"/><rect class="cls-34" x="118.19" y="238.38" width="160.63" height="2.85" rx="1.43"/><path class="cls-28" d="M228.73,219a.23.23,0,0,1-.17-.07.26.26,0,0,1,0-.35l5.86-5.69a.24.24,0,0,1,.34.35l-5.86,5.69A.22.22,0,0,1,228.73,219Z"/><path class="cls-28" d="M235.92,220a.23.23,0,0,1-.17-.07.25.25,0,0,1,0-.35l5.86-5.69a.24.24,0,0,1,.34.35l-5.86,5.69A.22.22,0,0,1,235.92,220Z"/><path class="cls-28" d="M226.05,224.81a.23.23,0,0,1-.18-.08.25.25,0,0,1,0-.35l18.54-16.58a.24.24,0,1,1,.32.36l-18.53,16.59A.27.27,0,0,1,226.05,224.81Z"/><path class="cls-28" d="M156.73,219a.23.23,0,0,1-.17-.07.26.26,0,0,1,0-.35l5.86-5.69a.24.24,0,0,1,.34.35l-5.86,5.69A.22.22,0,0,1,156.73,219Z"/><path class="cls-28" d="M163.92,220a.23.23,0,0,1-.17-.07.25.25,0,0,1,0-.35l5.86-5.69a.24.24,0,0,1,.34.35l-5.86,5.69A.22.22,0,0,1,163.92,220Z"/><path class="cls-28" d="M154.05,224.81a.23.23,0,0,1-.18-.08.25.25,0,0,1,0-.35l18.54-16.58a.24.24,0,1,1,.32.36l-18.53,16.59A.27.27,0,0,1,154.05,224.81Z"/><path class="cls-28" d="M161.75,160.39a.16.16,0,0,1-.11,0,.14.14,0,0,1,0-.2l3.45-3.36a.14.14,0,0,1,.2,0,.13.13,0,0,1,0,.2l-3.45,3.36A.21.21,0,0,1,161.75,160.39Z"/><path class="cls-28" d="M166,161a.12.12,0,0,1-.1,0,.15.15,0,0,1,0-.21l3.45-3.35a.15.15,0,0,1,.21,0,.14.14,0,0,1,0,.2l-3.45,3.36A.13.13,0,0,1,166,161Z"/><path class="cls-28" d="M160.16,163.81a.16.16,0,0,1-.11-.05.14.14,0,0,1,0-.2L171,153.77a.15.15,0,1,1,.19.22l-10.93,9.78A.13.13,0,0,1,160.16,163.81Z"/><path class="cls-28" d="M196,160.18a.18.18,0,0,1-.1,0,.15.15,0,0,1,0-.21l3.46-3.36a.14.14,0,0,1,.2,0,.15.15,0,0,1,0,.2l-3.46,3.36A.13.13,0,0,1,196,160.18Z"/><path class="cls-28" d="M200.19,160.75a.14.14,0,0,1-.1,0,.15.15,0,0,1,0-.2l3.46-3.36a.14.14,0,0,1,.2.2l-3.45,3.36A.15.15,0,0,1,200.19,160.75Z"/><path class="cls-28" d="M194.37,163.6a.16.16,0,0,1-.11,0,.14.14,0,0,1,0-.2l10.94-9.79a.15.15,0,0,1,.19.22l-10.94,9.78A.11.11,0,0,1,194.37,163.6Z"/><path class="cls-28" d="M229.53,160.18a.15.15,0,0,1-.1,0,.15.15,0,0,1,0-.21l3.45-3.36a.15.15,0,0,1,.21,0,.14.14,0,0,1,0,.2l-3.45,3.36A.13.13,0,0,1,229.53,160.18Z"/><path class="cls-28" d="M233.77,160.75a.13.13,0,0,1-.1,0,.13.13,0,0,1,0-.2l3.45-3.36a.14.14,0,0,1,.21,0,.14.14,0,0,1,0,.2l-3.45,3.36A.13.13,0,0,1,233.77,160.75Z"/><path class="cls-28" d="M227.94,163.6a.12.12,0,0,1-.1,0,.13.13,0,0,1,0-.2l10.93-9.79a.16.16,0,0,1,.21,0,.15.15,0,0,1,0,.2L228,163.56A.13.13,0,0,1,227.94,163.6Z"/><path class="cls-45" d="M256.33,220.68h1.57a4.7,4.7,0,0,1,4.7,4.7v13.24a4.7,4.7,0,0,1-4.7,4.7h-1.56a4.69,4.69,0,0,1-4.69-4.69V225.37a4.7,4.7,0,0,1,4.7-4.7Z" transform="translate(-39.62 410.52) rotate(-73.09)"/><path class="cls-46" d="M267.72,236a4.71,4.71,0,0,1-5.86,3.13l-12.67-3.85a4.63,4.63,0,0,1-2.23-1.48,9.17,9.17,0,0,0,6.18-8.77l11.9,3.62a4.69,4.69,0,0,1,3.13,5.85Z"/><path class="cls-45" d="M303.37,288.16s-11.07-1.75-15.38-4.07c-7.65-4.11-10.54-7.4-11.32-10.51-1.35-5.42,21.11-6.11,21.11-6.11l14,15.27Z"/><path class="cls-47" d="M305.39,279.71c-3.08-2.78-15.65-2.57-20.55-1.78s-6.33-.79-6.33-.79-1.41-1.54-1.44-2.36l23.8.3A47.63,47.63,0,0,0,305.39,279.71Z"/><rect class="cls-48" x="254.12" y="176.32" width="56.03" height="99.44" rx="6.45"/><path class="cls-48" d="M275.4,183.4h13a2.92,2.92,0,0,0,2.51-1.16l2.42-4H270.47l2.42,4A3,3,0,0,0,275.4,183.4Z"/><path class="cls-49" d="M276.82,180.5H287a.4.4,0,0,1,0,.79H276.82a.4.4,0,0,1,0-.79Z"/><path class="cls-50" d="M307,257.4v10.67a4.65,4.65,0,0,1-4.65,4.65H261.94a4.65,4.65,0,0,1-4.65-4.65V257.4Z"/><circle class="cls-28" cx="281.8" cy="265.25" r="4.82"/><circle class="cls-51" cx="281.8" cy="265.25" r="5.79"/><rect class="cls-52" x="257.29" y="183.73" width="49.25" height="73.67"/><path class="cls-34" d="M268.72,197.91c6.34,0,9.47,2.87,9.47,8.37,0,5.71-4,8.37-9.47,8.37s-9.47-2.66-9.47-8.37S263.22,197.91,268.72,197.91Zm0,12.94c1.69,0,2.54-1.48,2.54-4.53,0-2.7-.42-4.61-2.54-4.61s-2.54,1.91-2.54,4.61S266.6,210.85,268.72,210.85Zm21-13.75h6.21l-21.86,33h-6.22Zm5.37,15.4c6.34,0,9.47,2.87,9.47,8.37,0,5.71-4,8.37-9.47,8.37s-9.47-2.66-9.47-8.37S289.57,212.5,295.07,212.5Zm0,12.94c1.69,0,2.54-1.48,2.54-4.53,0-2.7-.43-4.61-2.54-4.61s-2.54,1.91-2.54,4.61S293,225.44,295.07,225.44Z"/><rect class="cls-53" x="259.25" y="235.55" width="45.3" height="9.36" rx="3"/><text class="cls-54" transform="translate(269.27 241.71)">APP<tspan class="cls-55" x="7.6" y="0">L</tspan><tspan x="9.38" y="0">Y </tspan><tspan class="cls-56" x="12.8" y="0">L</tspan><tspan class="cls-57" x="14.88" y="0">O</tspan><tspan x="18.09" y="0">AN</tspan></text><path class="cls-45" d="M306.79,239.3c5.95,7.24,21.08,34.59,21.08,34.59l-17.24,9.48s-19.94-9.52-12.06-29.08c-4.62-10.08-7.75-23.13-2.64-27.41,1.15-.84,2.52-1.28,3.54.55C300.68,229.57,302,233.45,306.79,239.3Z"/><path class="cls-47" d="M303.36,249.37c-4,5.78-6.4,12.17-6.28,17.46a22,22,0,0,1,1.49-12.54c-4.77-10.52-5.12-17-5.16-17.48C294.45,240.61,297.72,250.14,303.36,249.37Z"/><path class="cls-45" d="M253.28,237.07h1.57a4.7,4.7,0,0,1,4.7,4.7v4.82a4.7,4.7,0,0,1-4.7,4.7h-1.56a4.69,4.69,0,0,1-4.69-4.69v-4.83a4.7,4.7,0,0,1,4.7-4.7Z" transform="translate(-47.76 426.05) rotate(-74.93)"/><path class="cls-45" d="M255.25,245h1.57a4.7,4.7,0,0,1,4.7,4.7V263a4.7,4.7,0,0,1-4.7,4.7h-1.56a4.69,4.69,0,0,1-4.69-4.69V249.73a4.7,4.7,0,0,1,4.7-4.7Z" transform="translate(-58.05 436.97) rotate(-74.94)"/><path class="cls-45" d="M248.15,266l.37-1.38a4.28,4.28,0,0,1,5.24-3.05l7.59,2a4.3,4.3,0,0,1,3,5.25L264,270.2a4.29,4.29,0,0,1-5.24,3.05l-7.59-2A4.29,4.29,0,0,1,248.15,266Z"/><polygon class="cls-45" points="326.05 270.64 348.19 299.96 308.98 299.96 299.71 286.35 326.05 270.64"/><path class="cls-58" d="M339.66,300c-5.91-8.22-17.73-20-20.06-31.86s-5-17-5-17,6.23,10.17,9.17,15.64a42.75,42.75,0,0,0,5,7.55c1.66,2.3,19.41,25.68,19.41,25.68Z"/><path class="cls-59" d="M299.55,227.57c-1.56,1-3.06,4.78-.34,8a6,6,0,0,0,3.79-1.55S300.85,230.42,299.55,227.57Z"/><path class="cls-59" d="M258.56,241.64s.41,4.94-1.88,6.83c-1.94-.82-3.18-2.62-2.25-4.84A3.36,3.36,0,0,1,258.56,241.64Z"/><path class="cls-59" d="M265.17,255.2s.25,4.91-2,6.53c-2.51-.73-3.58-2-2.77-4.59C261.28,254.12,265.17,255.2,265.17,255.2Z"/><path class="cls-59" d="M262.3,265.77s.05,4.71-1.91,6.19c-2.06-.77-2.91-2-2.15-4.48C259.11,264.62,262.3,265.77,262.3,265.77Z"/><path class="cls-46" d="M255,250.1l-4.66-1.26a4.67,4.67,0,0,1-3.43-3.93c5.66,3.27,11.19,3.41,13.84,1.9A4.7,4.7,0,0,1,255,250.1Z"/><path class="cls-46" d="M266.68,260.3a4.67,4.67,0,0,1-5.67,3.06l-12.79-3.44a4.69,4.69,0,0,1-3.47-4.58c1.33,1.28,3.73,2.36,8.39,3.52C258,260.08,263.6,261.06,266.68,260.3Z"/><path class="cls-46" d="M264,270.32a4.3,4.3,0,0,1-5.21,2.93l-7.59-2a4.29,4.29,0,0,1-3-5.24l.16-.61a23.9,23.9,0,0,0,6.93,3.72A23.51,23.51,0,0,0,264,270.32Z"/><path class="cls-60" d="M274,112.77a2,2,0,1,1-2.05-2A2.05,2.05,0,0,1,274,112.77Z"/><path class="cls-60" d="M294.67,90.56a.72.72,0,1,1-.72-.72A.71.71,0,0,1,294.67,90.56Z"/><circle class="cls-60" cx="237.65" cy="68.43" r="1.36"/><path class="cls-60" d="M274.15,60.67a1.36,1.36,0,1,1-1.36-1.36A1.35,1.35,0,0,1,274.15,60.67Z"/><circle class="cls-60" cx="196.11" cy="53.48" r="0.58"/><circle class="cls-60" cx="132.04" cy="73.09" r="1.75"/><path class="cls-60" d="M172.23,34.84a1.56,1.56,0,1,1-1.56-1.55A1.56,1.56,0,0,1,172.23,34.84Z"/><circle class="cls-60" cx="104.76" cy="130.65" r="0.87"/><circle class="cls-60" cx="84.76" cy="163.66" r="2.23"/><path class="cls-60" d="M104.08,207.83a.78.78,0,1,1-.78-.78A.78.78,0,0,1,104.08,207.83Z"/><path class="cls-60" d="M297.45,152.2a1.27,1.27,0,1,1-1.26-1.26A1.27,1.27,0,0,1,297.45,152.2Z"/><path class="cls-60" d="M328.12,196.57a1.55,1.55,0,1,1-1.55-1.56A1.55,1.55,0,0,1,328.12,196.57Z"/></g></g></g></svg>