<svg xmlns="http://www.w3.org/2000/svg" viewBox="0 0 517.49 108.61"><defs><style>.cls-1{fill:#222;}</style></defs><title>basobaas-logo-mono</title><g id="Layer_2" data-name="Layer 2"><g id="Layer_1-2" data-name="Layer 1"><path class="cls-1" d="M115.24,18.65l12.82,2.52V39.68l-.79,6.85h.79a14.54,14.54,0,0,1,5.47-5.19,18.18,18.18,0,0,1,9.2-2.15,20.7,20.7,0,0,1,8.76,1.91,23.37,23.37,0,0,1,7.33,5.28,25.1,25.1,0,0,1,5,8.07,29.28,29.28,0,0,1,0,20.54,25.1,25.1,0,0,1-5,8.07,23.37,23.37,0,0,1-7.33,5.28,20.7,20.7,0,0,1-8.76,1.91,18.18,18.18,0,0,1-9.2-2.15,14.52,14.52,0,0,1-5.47-5.18h-.79l-2.52,5.77h-9.51Zm24.85,59.77a12.28,12.28,0,0,0,4.84-1A12.76,12.76,0,0,0,149,74.7a13.37,13.37,0,0,0,2.84-4.31,15.56,15.56,0,0,0,0-11.34A13.37,13.37,0,0,0,149,54.74,12.93,12.93,0,0,0,144.93,52a12.27,12.27,0,0,0-4.84-1,12.94,12.94,0,0,0-4.84.92,12.05,12.05,0,0,0-4.06,2.69A13.37,13.37,0,0,0,128.35,59a16,16,0,0,0,0,11.54,13.37,13.37,0,0,0,2.84,4.31,12.05,12.05,0,0,0,4.06,2.69A12.75,12.75,0,0,0,140.09,78.42Z"/><path class="cls-1" d="M201.52,83.6h-.78a21.66,21.66,0,0,1-5.43,4.7,15.42,15.42,0,0,1-8.17,2,19.91,19.91,0,0,1-7-1.22,18.17,18.17,0,0,1-5.73-3.38,15,15,0,0,1-3.81-5.18,16,16,0,0,1-1.37-6.65,15,15,0,0,1,1.47-6.7A15.21,15.21,0,0,1,174.82,62,18.61,18.61,0,0,1,181,58.7a26.05,26.05,0,0,1,7.77-1.12,33.69,33.69,0,0,1,7.73.73,37.71,37.71,0,0,1,5,1.52V58.36a7.84,7.84,0,0,0-3-6.31A11.47,11.47,0,0,0,191,49.56a14.07,14.07,0,0,0-11.25,5.57l-9.3-6.35q7.64-9.6,20.84-9.59,11.15,0,17,5.23t5.87,15.51V88.69H204Zm0-14.38a26,26,0,0,0-4.65-1.71,20,20,0,0,0-5.23-.64c-3.06,0-5.43.67-7.09,2a6.13,6.13,0,0,0-2.5,4.94,5.53,5.53,0,0,0,2.4,4.69A9.06,9.06,0,0,0,190,80.27a11.71,11.71,0,0,0,8.36-3.37,10.66,10.66,0,0,0,2.35-3.52A10.84,10.84,0,0,0,201.52,69.22Z"/><path class="cls-1" d="M240.85,90.25a27.57,27.57,0,0,1-8.37-1.17A23.22,23.22,0,0,1,226.12,86a20,20,0,0,1-4.54-4.4,21.37,21.37,0,0,1-2.84-5l11.44-4.89a12.32,12.32,0,0,0,4.46,5.52A11.1,11.1,0,0,0,240.85,79a10.51,10.51,0,0,0,5.57-1.27,3.62,3.62,0,0,0,2.06-3,3.75,3.75,0,0,0-1.71-3.18,17.69,17.69,0,0,0-5.92-2.2l-6.75-1.47a24.45,24.45,0,0,1-4.65-1.56,18.07,18.07,0,0,1-4.35-2.74,13.92,13.92,0,0,1-3.23-4,11.31,11.31,0,0,1-1.27-5.48,12.69,12.69,0,0,1,1.51-6.26,14.09,14.09,0,0,1,4.16-4.65,19.82,19.82,0,0,1,6.21-2.93,27.47,27.47,0,0,1,7.68-1,27,27,0,0,1,12.23,2.69,16.52,16.52,0,0,1,7.92,8.56l-11.05,4.5a8.48,8.48,0,0,0-4-4.11A12,12,0,0,0,240,49.56a9.84,9.84,0,0,0-4.8,1.12,3.3,3.3,0,0,0-2,2.89,3,3,0,0,0,1.71,2.64A19.85,19.85,0,0,0,239.48,58l7.33,1.76q7.35,1.77,10.91,5.63a13,13,0,0,1,3.57,9.14,12.8,12.8,0,0,1-1.47,6,16,16,0,0,1-4.15,5A20.46,20.46,0,0,1,249.21,89,26,26,0,0,1,240.85,90.25Z"/><path class="cls-1" d="M290.34,39.19a26.55,26.55,0,0,1,10.23,1.91,23.68,23.68,0,0,1,13.3,13.35,28.57,28.57,0,0,1,0,20.54,23.68,23.68,0,0,1-13.3,13.35,28.32,28.32,0,0,1-20.45,0A23.68,23.68,0,0,1,266.82,75a28.57,28.57,0,0,1,0-20.54,23.68,23.68,0,0,1,13.3-13.35A26.53,26.53,0,0,1,290.34,39.19Zm0,39.23a12.6,12.6,0,0,0,4.75-.93,12.25,12.25,0,0,0,4.06-2.69,12.94,12.94,0,0,0,2.79-4.31,16.83,16.83,0,0,0,0-11.54,12.94,12.94,0,0,0-2.79-4.31A12.25,12.25,0,0,0,295.09,52a12.78,12.78,0,0,0-4.75-.92,12.61,12.61,0,0,0-4.79.92,12.25,12.25,0,0,0-4,2.69A12.94,12.94,0,0,0,278.75,59a16.68,16.68,0,0,0,0,11.54,12.94,12.94,0,0,0,2.79,4.31,12.25,12.25,0,0,0,4,2.69A12.43,12.43,0,0,0,290.34,78.42Z"/><path class="cls-1" d="M321.55,18.65l12.81,2.52V39.68l-.78,6.85h.78a14.57,14.57,0,0,1,5.48-5.19,18.18,18.18,0,0,1,9.2-2.15,20.62,20.62,0,0,1,8.75,1.91,23.41,23.41,0,0,1,7.34,5.28,25.1,25.1,0,0,1,5,8.07,29.28,29.28,0,0,1,0,20.54,25.1,25.1,0,0,1-5,8.07,23.41,23.41,0,0,1-7.34,5.28A20.62,20.62,0,0,1,349,90.25a18.18,18.18,0,0,1-9.2-2.15,14.55,14.55,0,0,1-5.48-5.18h-.78l-2.52,5.77h-9.51ZM346.4,78.42a12.28,12.28,0,0,0,4.84-1,12.88,12.88,0,0,0,4.06-2.74,13.53,13.53,0,0,0,2.84-4.31,15.56,15.56,0,0,0,0-11.34,13.53,13.53,0,0,0-2.84-4.31A13,13,0,0,0,351.24,52a12.27,12.27,0,0,0-4.84-1,13,13,0,0,0-4.85.92,12.11,12.11,0,0,0-4.05,2.69A13.21,13.21,0,0,0,334.66,59a16,16,0,0,0,0,11.54,13.21,13.21,0,0,0,2.84,4.31,12.11,12.11,0,0,0,4.05,2.69A12.84,12.84,0,0,0,346.4,78.42Z"/><path class="cls-1" d="M407.83,83.6h-.78a21.66,21.66,0,0,1-5.43,4.7,15.42,15.42,0,0,1-8.17,2,20,20,0,0,1-7-1.22,18.23,18.23,0,0,1-5.72-3.38,15,15,0,0,1-3.81-5.18,15.86,15.86,0,0,1-1.37-6.65,15.08,15.08,0,0,1,1.46-6.7A15.33,15.33,0,0,1,381.12,62a18.61,18.61,0,0,1,6.21-3.28,26.12,26.12,0,0,1,7.78-1.12,33.69,33.69,0,0,1,7.73.73,38.19,38.19,0,0,1,5,1.52V58.36a7.84,7.84,0,0,0-3-6.31,11.51,11.51,0,0,0-7.54-2.49A14.1,14.1,0,0,0,386,55.13l-9.29-6.35q7.63-9.6,20.84-9.59,11.15,0,17,5.23t5.87,15.51V88.69h-10.1Zm0-14.38a26,26,0,0,0-4.65-1.71,20.09,20.09,0,0,0-5.23-.64q-4.6,0-7.09,2a6.1,6.1,0,0,0-2.5,4.94,5.53,5.53,0,0,0,2.4,4.69,9.06,9.06,0,0,0,5.53,1.76,11.71,11.71,0,0,0,8.36-3.37,10.89,10.89,0,0,0,3.18-7.68Z"/><path class="cls-1" d="M457.72,83.6h-.78a21.66,21.66,0,0,1-5.43,4.7,15.42,15.42,0,0,1-8.17,2,20,20,0,0,1-7-1.22,18.23,18.23,0,0,1-5.72-3.38,15,15,0,0,1-3.81-5.18,15.86,15.86,0,0,1-1.37-6.65,15.08,15.08,0,0,1,1.46-6.7A15.33,15.33,0,0,1,431,62a18.61,18.61,0,0,1,6.21-3.28A26.12,26.12,0,0,1,445,57.58a33.69,33.69,0,0,1,7.73.73,38.19,38.19,0,0,1,5,1.52V58.36a7.84,7.84,0,0,0-3-6.31,11.51,11.51,0,0,0-7.54-2.49,14.1,14.1,0,0,0-11.25,5.57l-9.29-6.35q7.63-9.6,20.84-9.59,11.15,0,17,5.23t5.87,15.51V88.69h-10.1Zm0-14.38a26,26,0,0,0-4.65-1.71,20.09,20.09,0,0,0-5.23-.64q-4.6,0-7.09,2a6.1,6.1,0,0,0-2.5,4.94,5.53,5.53,0,0,0,2.4,4.69,9.06,9.06,0,0,0,5.53,1.76,11.71,11.71,0,0,0,8.36-3.37,10.89,10.89,0,0,0,3.18-7.68Z"/><path class="cls-1" d="M497,90.25a27.5,27.5,0,0,1-8.36-1.17A23.22,23.22,0,0,1,482.32,86a20.27,20.27,0,0,1-4.55-4.4,21.32,21.32,0,0,1-2.83-5l11.44-4.89a12.3,12.3,0,0,0,4.45,5.52A11.14,11.14,0,0,0,497,79a10.53,10.53,0,0,0,5.58-1.27,3.62,3.62,0,0,0,2.06-3A3.76,3.76,0,0,0,503,71.52a17.51,17.51,0,0,0-5.92-2.2l-6.74-1.47a24.22,24.22,0,0,1-4.65-1.56,18.33,18.33,0,0,1-4.36-2.74,13.88,13.88,0,0,1-3.22-4,11.31,11.31,0,0,1-1.27-5.48,12.69,12.69,0,0,1,1.51-6.26,14.09,14.09,0,0,1,4.16-4.65,19.82,19.82,0,0,1,6.21-2.93,27.47,27.47,0,0,1,7.68-1,27.05,27.05,0,0,1,12.23,2.69,16.56,16.56,0,0,1,7.92,8.56l-11.05,4.5a8.52,8.52,0,0,0-4-4.11,12.05,12.05,0,0,0-5.29-1.27,9.83,9.83,0,0,0-4.79,1.12,3.3,3.3,0,0,0-2.05,2.89A3,3,0,0,0,491,56.21,19.85,19.85,0,0,0,495.68,58L503,59.73q7.33,1.77,10.91,5.63a13,13,0,0,1,3.57,9.14,12.8,12.8,0,0,1-1.47,6,16.08,16.08,0,0,1-4.15,5A20.46,20.46,0,0,1,505.41,89,26,26,0,0,1,497,90.25Z"/><path class="cls-1" d="M99.83,49.92a49.87,49.87,0,1,0-34,47.33l8.62,11.36C101.9,79.26,99.83,49.92,99.83,49.92ZM31.54,23,38,26.85l.09,15.58-6.52,3.93ZM75,76.84l-43.41-.07V70.28l36.93.07V52.77L53.19,43.63,38,52.76V67.53H31.54V49.1l21.63-13L75,49.09Z"/></g></g></svg>