<svg xmlns="http://www.w3.org/2000/svg" viewBox="0 0 1026.26 215.39"><defs><style>.cls-1{fill:#36f;}</style></defs><title>basobaas-logo</title><g id="Layer_2" data-name="Layer 2"><g id="Layer_1-2" data-name="Layer 1"><path class="cls-1" d="M228.54,37,254,42V78.69L252.4,92.27H254A28.78,28.78,0,0,1,264.82,82q7.37-4.26,18.24-4.26a41.21,41.21,0,0,1,17.36,3.78A46.43,46.43,0,0,1,315,92a49.79,49.79,0,0,1,10,16,58.07,58.07,0,0,1,0,40.74,49.94,49.94,0,0,1-10,16,46.56,46.56,0,0,1-14.55,10.47A41.21,41.21,0,0,1,283.06,179q-10.87,0-18.24-4.26A28.7,28.7,0,0,1,254,164.43H252.4l-5,11.45H228.54Zm49.28,118.53a24.15,24.15,0,0,0,9.6-1.94,25.2,25.2,0,0,0,8.05-5.43,26.57,26.57,0,0,0,5.63-8.54,30.77,30.77,0,0,0,0-22.5,26.68,26.68,0,0,0-5.63-8.54,25.2,25.2,0,0,0-8.05-5.43,24.33,24.33,0,0,0-9.6-1.94,25.47,25.47,0,0,0-9.6,1.84,24,24,0,0,0-8.06,5.34,26.61,26.61,0,0,0-5.62,8.53,31.7,31.7,0,0,0,0,22.9,26.61,26.61,0,0,0,5.62,8.53,24,24,0,0,0,8.06,5.34A25.27,25.27,0,0,0,277.82,155.51Z"/><path class="cls-1" d="M399.65,165.79H398.1a42.92,42.92,0,0,1-10.77,9.31Q381,179,371.13,179a39.46,39.46,0,0,1-13.87-2.42,36.12,36.12,0,0,1-11.35-6.69,30,30,0,0,1-7.57-10.29,31.63,31.63,0,0,1-2.71-13.19,29.74,29.74,0,0,1,2.91-13.29,30.11,30.11,0,0,1,8.15-10.18,36.8,36.8,0,0,1,12.32-6.5,50.94,50.94,0,0,1,15.42-2.23,66.81,66.81,0,0,1,15.32,1.45,75.23,75.23,0,0,1,9.9,3v-2.91a15.53,15.53,0,0,0-6-12.51q-6-5-14.93-5-13.2,0-22.31,11.06L338,96.73q15.12-19,41.32-19,22.11,0,33.75,10.38t11.64,30.74v57h-20Zm0-28.52a52.85,52.85,0,0,0-9.22-3.39,40.45,40.45,0,0,0-10.38-1.26q-9.12,0-14.06,4a12.11,12.11,0,0,0-4.95,9.79,11,11,0,0,0,4.76,9.32,18.05,18.05,0,0,0,11,3.49,23.39,23.39,0,0,0,16.58-6.7,21.61,21.61,0,0,0,6.31-15.23Z"/><path class="cls-1" d="M477.64,179a54.46,54.46,0,0,1-16.59-2.32,45.67,45.67,0,0,1-12.61-6.12,39.83,39.83,0,0,1-9-8.72,41.81,41.81,0,0,1-5.63-10l22.7-9.7a24.56,24.56,0,0,0,8.83,11,22.14,22.14,0,0,0,12.32,3.58q7,0,11.05-2.52t4.08-6a7.45,7.45,0,0,0-3.4-6.31q-3.39-2.42-11.73-4.36l-13.39-2.91a47.2,47.2,0,0,1-9.22-3.1A36.29,36.29,0,0,1,446.4,126a27.51,27.51,0,0,1-6.4-8,22.48,22.48,0,0,1-2.52-10.86,25.15,25.15,0,0,1,3-12.42,28.08,28.08,0,0,1,8.24-9.22,39.56,39.56,0,0,1,12.32-5.82,55.19,55.19,0,0,1,15.23-2,53.61,53.61,0,0,1,24.25,5.33,32.87,32.87,0,0,1,15.71,17L494.32,109a16.81,16.81,0,0,0-7.95-8.15,24,24,0,0,0-10.48-2.52,19.59,19.59,0,0,0-9.51,2.23q-4.06,2.23-4.07,5.72c0,2.21,1.13,4,3.39,5.24a39.09,39.09,0,0,0,9.22,3.49l14.55,3.5q14.55,3.48,21.63,11.15a25.85,25.85,0,0,1,7.08,18.14,25.39,25.39,0,0,1-2.91,11.83,31.71,31.71,0,0,1-8.24,10,40.43,40.43,0,0,1-12.81,6.88A51.65,51.65,0,0,1,477.64,179Z"/><path class="cls-1" d="M575.8,77.72a52.94,52.94,0,0,1,20.27,3.78A47,47,0,0,1,622.45,108a56.78,56.78,0,0,1,0,40.74,46.93,46.93,0,0,1-26.38,26.48,56.27,56.27,0,0,1-40.55,0,46.93,46.93,0,0,1-26.38-26.48,56.64,56.64,0,0,1,0-40.74A47,47,0,0,1,555.52,81.5,52.92,52.92,0,0,1,575.8,77.72Zm0,77.79a24.82,24.82,0,0,0,9.4-1.84,24,24,0,0,0,8.06-5.34,25.29,25.29,0,0,0,5.52-8.53,33.15,33.15,0,0,0,0-22.9,25.29,25.29,0,0,0-5.52-8.53A24,24,0,0,0,585.2,103a25.21,25.21,0,0,0-18.91,0,24.1,24.1,0,0,0-7.95,5.34,25.16,25.16,0,0,0-5.53,8.53,33.15,33.15,0,0,0,0,22.9,25.16,25.16,0,0,0,5.53,8.53,24.1,24.1,0,0,0,7.95,5.34A24.6,24.6,0,0,0,575.8,155.51Z"/><path class="cls-1" d="M637.68,37l25.42,5V78.69l-1.56,13.58h1.56A28.78,28.78,0,0,1,674,82q7.37-4.26,18.24-4.26a41.21,41.21,0,0,1,17.36,3.78A46.43,46.43,0,0,1,724.11,92a49.79,49.79,0,0,1,10,16,58.07,58.07,0,0,1,0,40.74,49.94,49.94,0,0,1-10,16,46.56,46.56,0,0,1-14.55,10.47A41.21,41.21,0,0,1,692.2,179q-10.87,0-18.24-4.26a28.7,28.7,0,0,1-10.86-10.29h-1.56l-5,11.45H637.68ZM687,155.51a24.15,24.15,0,0,0,9.6-1.94,25.2,25.2,0,0,0,8.05-5.43,26.57,26.57,0,0,0,5.63-8.54,30.77,30.77,0,0,0,0-22.5,26.68,26.68,0,0,0-5.63-8.54,25.2,25.2,0,0,0-8.05-5.43,24.33,24.33,0,0,0-9.6-1.94,25.56,25.56,0,0,0-9.61,1.84,24,24,0,0,0-8.05,5.34,26.61,26.61,0,0,0-5.62,8.53,31.7,31.7,0,0,0,0,22.9,26.61,26.61,0,0,0,5.62,8.53,24,24,0,0,0,8.05,5.34A25.36,25.36,0,0,0,687,155.51Z"/><path class="cls-1" d="M808.79,165.79h-1.55a42.92,42.92,0,0,1-10.77,9.31q-6.32,3.89-16.2,3.88a39.46,39.46,0,0,1-13.87-2.42,36.12,36.12,0,0,1-11.35-6.69,29.92,29.92,0,0,1-7.57-10.29,31.63,31.63,0,0,1-2.71-13.19,29.74,29.74,0,0,1,2.91-13.29,30.11,30.11,0,0,1,8.15-10.18,36.84,36.84,0,0,1,12.31-6.5,51.06,51.06,0,0,1,15.43-2.23,66.81,66.81,0,0,1,15.32,1.45,75.23,75.23,0,0,1,9.9,3v-2.91a15.53,15.53,0,0,0-6-12.51q-6-5-14.93-5-13.2,0-22.31,11.06L747.09,96.73q15.13-19,41.33-19,22.11,0,33.75,10.38t11.64,30.74v57h-20Zm0-28.52a52.85,52.85,0,0,0-9.22-3.39,40.45,40.45,0,0,0-10.38-1.26q-9.12,0-14.06,4a12.11,12.11,0,0,0-5,9.79,11,11,0,0,0,4.75,9.32,18.07,18.07,0,0,0,11,3.49,23.4,23.4,0,0,0,16.59-6.7,21.61,21.61,0,0,0,6.31-15.23Z"/><path class="cls-1" d="M907.73,165.79h-1.56a42.7,42.7,0,0,1-10.76,9.31Q889.1,179,879.21,179a39.46,39.46,0,0,1-13.87-2.42A36.12,36.12,0,0,1,854,169.87a29.92,29.92,0,0,1-7.57-10.29,31.63,31.63,0,0,1-2.71-13.19,29.74,29.74,0,0,1,2.91-13.29,30.2,30.2,0,0,1,8.14-10.18,37,37,0,0,1,12.32-6.5,51,51,0,0,1,15.43-2.23,66.81,66.81,0,0,1,15.32,1.45,75.23,75.23,0,0,1,9.9,3v-2.91a15.53,15.53,0,0,0-6-12.51q-6-5-14.94-5-13.18,0-22.3,11.06L846,96.73q15.13-19,41.33-19,22.11,0,33.75,10.38t11.64,30.74v57h-20Zm0-28.52a52.85,52.85,0,0,0-9.22-3.39,40.45,40.45,0,0,0-10.38-1.26q-9.12,0-14.06,4a12.11,12.11,0,0,0-5,9.79,11,11,0,0,0,4.75,9.32,18.07,18.07,0,0,0,11,3.49,23.4,23.4,0,0,0,16.59-6.7,21.61,21.61,0,0,0,6.31-15.23Z"/><path class="cls-1" d="M985.72,179a54.46,54.46,0,0,1-16.59-2.32,45.67,45.67,0,0,1-12.61-6.12,39.83,39.83,0,0,1-9-8.72,41.81,41.81,0,0,1-5.63-10l22.7-9.7a24.56,24.56,0,0,0,8.83,11,22.14,22.14,0,0,0,12.32,3.58q7,0,11-2.52t4.08-6a7.45,7.45,0,0,0-3.4-6.31c-2.26-1.61-6.18-3.07-11.73-4.36l-13.39-2.91a47.2,47.2,0,0,1-9.22-3.1,36.29,36.29,0,0,1-8.63-5.44,27.51,27.51,0,0,1-6.4-8,22.48,22.48,0,0,1-2.52-10.86,25.25,25.25,0,0,1,3-12.42,28.23,28.23,0,0,1,8.25-9.22,39.56,39.56,0,0,1,12.32-5.82,55.13,55.13,0,0,1,15.23-2,53.61,53.61,0,0,1,24.25,5.33,32.87,32.87,0,0,1,15.71,17L1002.4,109a16.81,16.81,0,0,0-7.95-8.15A24,24,0,0,0,984,98.28a19.59,19.59,0,0,0-9.51,2.23q-4.07,2.23-4.07,5.72c0,2.21,1.13,4,3.39,5.24A39.09,39.09,0,0,0,983,115l14.55,3.5q14.55,3.48,21.63,11.15a25.85,25.85,0,0,1,7.08,18.14,25.39,25.39,0,0,1-2.91,11.83,31.71,31.71,0,0,1-8.24,10,40.43,40.43,0,0,1-12.81,6.88A51.65,51.65,0,0,1,985.72,179Z"/><path class="cls-1" d="M198,99a98.88,98.88,0,1,0-67.5,93.88l17.08,22.52C202.09,157.19,198,99,198,99ZM62.55,45.6,75.3,53.24l.18,30.91L62.55,91.94Zm86.08,106.78-86.08-.14V139.38l73.23.14V104.65l-30.3-18.13L75.4,104.64v29.28H62.55V97.37l42.9-25.85,43.18,25.84Z"/></g></g></svg>